<?xml version="1.0" standalone="no"?><!DOCTYPE svg PUBLIC "-//W3C//DTD SVG 1.1//EN" "http://www.w3.org/Graphics/SVG/1.1/DTD/svg11.dtd"><svg t="1584235783291" class="icon" viewBox="0 0 1024 1024" version="1.1" xmlns="http://www.w3.org/2000/svg" p-id="48693" xmlns:xlink="http://www.w3.org/1999/xlink" width="200" height="200"><defs><style type="text/css"></style></defs><path d="M492.391489 1004.391489l-95.863829-95.863829H65.361702c-30.502128 0-54.468085-23.965957-54.468085-54.468086V87.148936C10.893617 56.646809 34.859574 32.680851 65.361702 32.680851h370.382979l58.825532 67.540426 65.361702-67.540426H936.851064c30.502128 0 54.468085 23.965957 54.468085 54.468085v766.910638c0 30.502128-23.965957 54.468085-54.468085 54.468086H588.255319l-95.86383 95.863829zM76.255319 843.165957h346.417021l69.719149 67.540426 69.719149-67.540426h366.025532V98.042553H588.255319l-98.042553 100.221277-84.970213-100.221277H76.255319v745.123404z" fill="#0070F5" p-id="48694"></path><path d="M183.012766 392.170213h403.06383c17.429787 0 32.680851 15.251064 32.680851 32.680851s-15.251064 32.680851-32.680851 32.680851H183.012766c-17.429787 0-32.680851-15.251064-32.680851-32.680851S165.582979 392.170213 183.012766 392.170213z" fill="#FF8737" p-id="48695"></path><path d="M183.012766 544.680851h403.06383c17.429787 0 32.680851 15.251064 32.680851 32.680851s-15.251064 32.680851-32.680851 32.680851H183.012766c-17.429787 0-32.680851-15.251064-32.680851-32.680851S165.582979 544.680851 183.012766 544.680851zM183.012766 261.446809h148.153191c17.429787 0 32.680851 15.251064 32.680852 32.680851S348.595745 326.808511 331.165957 326.808511H183.012766c-17.429787 0-32.680851-15.251064-32.680851-32.680851S165.582979 261.446809 183.012766 261.446809z" fill="#0070F5" p-id="48696"></path></svg>