<?xml version="1.0" standalone="no"?><!DOCTYPE svg PUBLIC "-//W3C//DTD SVG 1.1//EN" "http://www.w3.org/Graphics/SVG/1.1/DTD/svg11.dtd"><svg t="1584235898123" class="icon" viewBox="0 0 1031 1024" version="1.1" xmlns="http://www.w3.org/2000/svg" p-id="53921" xmlns:xlink="http://www.w3.org/1999/xlink" width="201.3671875" height="200"><defs><style type="text/css"></style></defs><path d="M894.23632813 735.15429688H136.44335937c-40.95703125 0-74.44335938-33.48632813-74.44335937-74.44335938V173.97265625c0-40.95703125 33.48632813-74.44335938 74.44335938-74.44335938h757.79296875c40.95703125 0 74.44335938 33.48632813 74.44335937 74.44335938v486.73828125c0 40.95703125-33.48632813 74.44335938-74.44335937 74.44335938z" fill="#50E3E0" p-id="53922"></path><path d="M894.23632813 933.43554688H136.44335937c-40.95703125 0-74.44335938-33.48632813-74.44335937-74.44335938V297.8984375H968.59179688v561.18164063c0.08789063 40.86914063-33.3984375 74.35546875-74.35546876 74.35546875z" fill="#475762" p-id="53923"></path><path d="M225.01453188 267.71949035m-19.4854103 0a19.4854103 19.4854103 0 1 0 38.9708206 0 19.4854103 19.4854103 0 1 0-38.9708206 0Z" fill="#CACACA" p-id="53924"></path><path d="M280.68713275 267.71949035m-19.48541031 0a19.4854103 19.4854103 0 1 0 38.97082061 0 19.4854103 19.4854103 0 1 0-38.97082061 0Z" fill="#CACACA" p-id="53925"></path><path d="M336.35973361 267.71949035m-19.48541029 0a19.4854103 19.4854103 0 1 0 38.97082059 0 19.4854103 19.4854103 0 1 0-38.97082059 0Z" fill="#CACACA" p-id="53926"></path><path d="M267.44791669 422.24490446h-29.26206217c-8.82614404 0-16.0228461-7.19670206-16.0228461-16.0228461 0-8.82614404 7.19670206-16.0228461 16.0228461-16.0228461h29.26206217c8.82614404 0 16.0228461 7.19670206 16.0228461 16.0228461 0 8.82614404-7.19670206 16.0228461-16.0228461 16.0228461z" fill="#CACACA" p-id="53927"></path><path d="M334.19726562 395.80859375h-62.13867187c-11.42578125 0-20.7421875-9.31640625-20.7421875-20.7421875 0-11.42578125 9.31640625-20.7421875 20.7421875-20.7421875h62.13867188c11.42578125 0 20.7421875 9.31640625 20.7421875 20.7421875 0 11.42578125-9.31640625 20.7421875-20.7421875 20.7421875zM354.06054687 474.20703125h-30.14648437c-11.42578125 0-20.7421875-9.31640625-20.7421875-20.7421875 0-11.42578125 9.31640625-20.7421875 20.7421875-20.7421875h30.14648438c11.42578125 0 20.7421875 9.31640625 20.7421875 20.7421875 0 11.42578125-9.40429688 20.7421875-20.7421875 20.7421875zM400.02734375 552.60546875h-28.828125c-11.42578125 0-20.7421875-9.31640625-20.7421875-20.7421875 0-11.42578125 9.31640625-20.7421875 20.7421875-20.7421875h28.828125c11.42578125 0 20.7421875 9.31640625 20.7421875 20.7421875 0 11.42578125-9.40429688 20.7421875-20.7421875 20.7421875z" fill="#F26397" p-id="53928"></path><path d="M587.02222434 543.36675805H483.96001932c-8.82614404 0-16.0228461-7.19670206-16.0228461-16.0228461 0-8.82614404 7.19670206-16.0228461 16.0228461-16.02284611H587.02222434c8.82614404 0 16.0228461 7.19670206 16.0228461 16.02284611-0.06789341 8.82614404-7.26459548 16.0228461-16.0228461 16.0228461z" fill="#6ACEB1" p-id="53929"></path><path d="M752.1171875 552.60546875h-55.8984375c-11.42578125 0-20.7421875-9.31640625-20.7421875-20.7421875 0-11.42578125 9.31640625-20.7421875 20.7421875-20.7421875h55.8984375c11.42578125 0 20.7421875 9.31640625 20.7421875 20.7421875 0 11.42578125-9.31640625 20.7421875-20.7421875 20.7421875zM874.72460938 624.67578125H744.91015625c-11.42578125 0-20.7421875-9.31640625-20.7421875-20.7421875 0-11.42578125 9.31640625-20.7421875 20.7421875-20.7421875h129.81445313c11.42578125 0 20.7421875 9.31640625 20.74218749 20.7421875 0 11.33789063-9.40429688 20.7421875-20.7421875 20.7421875zM743.15234375 709.40234375h-62.13867188c-11.42578125 0-20.7421875-9.31640625-20.7421875-20.7421875 0-11.42578125 9.31640625-20.7421875 20.7421875-20.7421875h62.13867188c11.42578125 0 20.7421875 9.31640625 20.7421875 20.7421875 0 11.42578125-9.40429688 20.7421875-20.7421875 20.7421875zM671.2578125 787.80078125H609.11914063c-11.42578125 0-20.7421875-9.31640625-20.74218751-20.7421875 0-11.42578125 9.31640625-20.7421875 20.7421875-20.7421875h62.13867188c11.42578125 0 20.7421875 9.31640625 20.7421875 20.7421875 0 11.42578125-9.31640625 20.7421875-20.7421875 20.7421875zM874.72460938 552.60546875h-55.89843751c-11.42578125 0-20.7421875-9.31640625-20.7421875-20.7421875 0-11.42578125 9.31640625-20.7421875 20.7421875-20.7421875h55.8984375c11.42578125 0 20.7421875 9.31640625 20.7421875 20.7421875 0 11.42578125-9.40429688 20.7421875-20.7421875 20.7421875zM867.95703125 709.40234375H849.93945313c-11.42578125 0-20.7421875-9.31640625-20.74218751-20.7421875 0-11.42578125 9.31640625-20.7421875 20.7421875-20.7421875h18.01757813c11.42578125 0 20.7421875 9.31640625 20.7421875 20.7421875 0 11.42578125-9.31640625 20.7421875-20.7421875 20.7421875z" fill="#5F7786" p-id="53930"></path><path d="M567.63476563 474.20703125H434.21679687c-11.42578125 0-20.7421875-9.31640625-20.74218749-20.7421875 0-11.42578125 9.31640625-20.7421875 20.7421875-20.7421875h133.41796874c11.42578125 0 20.7421875 9.31640625 20.74218751 20.7421875 0 11.42578125-9.31640625 20.7421875-20.7421875 20.7421875zM609.11914063 624.67578125H475.70117187c-11.42578125 0-20.7421875-9.31640625-20.7421875-20.7421875 0-11.42578125 9.31640625-20.7421875 20.7421875-20.7421875H609.11914063c11.42578125 0 20.7421875 9.31640625 20.74218749 20.7421875-0.08789063 11.33789063-9.40429688 20.7421875-20.7421875 20.7421875zM609.11914063 709.40234375H475.70117187c-11.42578125 0-20.7421875-9.31640625-20.7421875-20.7421875 0-11.42578125 9.31640625-20.7421875 20.7421875-20.7421875H609.11914063c11.42578125 0 20.7421875 9.31640625 20.74218749 20.7421875-0.08789063 11.42578125-9.40429688 20.7421875-20.7421875 20.7421875zM508.1328125 787.80078125h-32.43164063c-11.42578125 0-20.7421875-9.31640625-20.7421875-20.7421875 0-11.42578125 9.31640625-20.7421875 20.7421875-20.7421875h32.43164063c11.42578125 0 20.7421875 9.31640625 20.7421875 20.7421875 0 11.42578125-9.31640625 20.7421875-20.7421875 20.7421875z" fill="#6ACEB1" p-id="53931"></path><path d="M429.98475385 603.92768485h-23.28744158c-8.82614404 0-16.0228461-7.19670206-16.02284611-16.0228461 0-8.82614404 7.19670206-16.0228461 16.02284611-16.02284611h23.28744158c8.82614404 0 16.0228461 7.19670206 16.0228461 16.02284611 0 8.82614404-7.19670206 16.0228461-16.0228461 16.0228461zM429.98475385 664.48861164h-23.28744158c-8.82614404 0-16.0228461-7.19670206-16.02284611-16.02284611 0-8.82614404 7.19670206-16.0228461 16.02284611-16.0228461h23.28744158c8.82614404 0 16.0228461 7.19670206 16.0228461 16.0228461 0 8.82614404-7.19670206 16.0228461-16.0228461 16.02284611zM394.88385793 725.04953844h-28.17576751c-8.82614404 0-16.0228461-7.19670206-16.0228461-16.02284611 0-8.82614404 7.19670206-16.0228461 16.0228461-16.0228461H394.88385793c8.82614404 0 16.0228461 7.19670206 16.0228461 16.0228461-0.06789341 8.82614404-7.26459548 16.0228461-16.0228461 16.02284611zM371.18905586 782.14790102h-48.00064489c-8.82614404 0-16.0228461-7.19670206-16.0228461-16.0228461 0-8.82614404 7.19670206-16.0228461 16.0228461-16.0228461h48.00064489c8.82614404 0 16.0228461 7.19670206 16.02284611 16.0228461 0 8.82614404-7.19670206 16.0228461-16.02284611 16.0228461z" fill="#F26397" p-id="53932"></path><path d="M195.41796875 474.20703125h-37.88085938c-11.42578125 0-20.7421875-9.31640625-20.7421875-20.7421875 0-11.42578125 9.31640625-20.7421875 20.7421875-20.7421875h37.88085938c11.42578125 0 20.7421875 9.31640625 20.7421875 20.7421875 0 11.42578125-9.31640625 20.7421875-20.7421875 20.7421875zM195.41796875 552.60546875h-37.88085938c-11.42578125 0-20.7421875-9.31640625-20.7421875-20.7421875 0-11.42578125 9.31640625-20.7421875 20.7421875-20.7421875h37.88085938c11.42578125 0 20.7421875 9.31640625 20.7421875 20.7421875 0 11.42578125-9.31640625 20.7421875-20.7421875 20.7421875zM195.41796875 631.00390625h-37.88085938c-11.42578125 0-20.7421875-9.31640625-20.7421875-20.7421875 0-11.42578125 9.31640625-20.7421875 20.7421875-20.7421875h37.88085938c11.42578125 0 20.7421875 9.31640625 20.7421875 20.7421875 0 11.42578125-9.31640625 20.7421875-20.7421875 20.7421875zM195.41796875 709.40234375h-37.88085938c-11.42578125 0-20.7421875-9.31640625-20.7421875-20.7421875 0-11.42578125 9.31640625-20.7421875 20.7421875-20.7421875h37.88085938c11.42578125 0 20.7421875 9.31640625 20.7421875 20.7421875 0 11.42578125-9.31640625 20.7421875-20.7421875 20.7421875zM195.41796875 787.80078125h-37.88085938c-11.42578125 0-20.7421875-9.31640625-20.7421875-20.7421875 0-11.42578125 9.31640625-20.7421875 20.7421875-20.7421875h37.88085938c11.42578125 0 20.7421875 9.31640625 20.7421875 20.7421875 0 11.42578125-9.31640625 20.7421875-20.7421875 20.7421875zM195.41796875 866.19921875h-37.88085938c-11.42578125 0-20.7421875-9.31640625-20.7421875-20.7421875 0-11.42578125 9.31640625-20.7421875 20.7421875-20.7421875h37.88085938c11.42578125 0 20.7421875 9.31640625 20.7421875 20.7421875 0 11.42578125-9.31640625 20.7421875-20.7421875 20.7421875z" fill="#CACACA" p-id="53933"></path></svg>