<?xml version="1.0" standalone="no"?><!DOCTYPE svg PUBLIC "-//W3C//DTD SVG 1.1//EN" "http://www.w3.org/Graphics/SVG/1.1/DTD/svg11.dtd"><svg t="1584236043980" class="icon" viewBox="0 0 1024 1024" version="1.1" xmlns="http://www.w3.org/2000/svg" p-id="58203" xmlns:xlink="http://www.w3.org/1999/xlink" width="200" height="200"><defs><style type="text/css"></style></defs><path d="M425.527 99.203z m2.8 23.506c0.042 0.147 0.083 0.29 0.149 0.429 0 0-0.931 0.479-0.149-0.429z" p-id="58204" fill="#1296db"></path><path d="M192.439 976.755c4.528 15.605 17.115 32.217 34.23 31.216 17.115-1.009 30.204-6.547 25.17-22.155 0 0-5.035-10.066-13.087-6.547 0 0 1.007-5.031 4.528-6.036 3.521-1.009 9.06-1.513 9.06-4.532 0-3.018-2.518-4.021-2.518-4.021l6.041-6.045s1.513-2.011 4.025-4.025c2.518-2.018 2.518-8.057 2.518-8.057s0.502-5.035 3.021-5.035c2.518 0 3.521 1.007 5.035 1.513 1.513 0.502 5.537 2.015 5.537 2.015s4.025-0.507 5.537-1.009c1.513-0.502 6.547-6.041 6.547-6.041s4.532-1.513 6.542-3.021c2.015-1.513 5.035-10.07 5.035-10.07l2.518-6.045s0.502-3.021-1.007-4.021c-1.513-1.009-1.007-4.03-1.007-4.03s18.125-16.613 41.281-25.669c0 0 47.316-19.629 53.361-24.663 6.041-5.035 44.802-24.663 44.802-24.663l3.024 3.518s4.532 2.015 8.557 2.015 9.065 3.521 13.089 1.009c4.025-2.523 5.038-4.532 7.556-8.557 2.518-4.03 7.058-7.554 7.058-7.554s6.06 4.021 11.094 4.021c5.035 0 6.082-3.021 6.082-3.021l3.102 1.007 3.825 1.009 4.998-4.025v-4.644l1.642-3.911 2.062-4.528 0.193-5.031s10.414 0.502 14.441-8.562c4.025-9.065 0.931-14.092 1.434-15.605 0.502-1.513 7.514-6.542 6.002-8.557-1.508-2.015-2.532-5.541-2.532-5.541s-0.014-2.513 1.5-4.525c1.508-2.015 7.043-8.057 7.043-9.568s-2.018-6.542 2.011-10.066c4.025-3.518 7.046-8.557 7.046-15.605 0-7.049 1.007-9.564 2.518-16.613 1.513-7.049 5.035-16.111 5.035-19.632 0-3.527 2.015-28.699 2.015-28.699s15.1 4.532 19.131 5.541c4.025 1.007 8.051 27.184 9.06 28.693 1.007 1.513 9.564 13.089 14.096 16.111 4.528 3.018 3.521 13.591 5.537 17.618 2.015 4.025 10.566 10.066 10.566 10.066s6.547-3.024 7.049 1.009c0.502 4.021 5.035 38.755 10.066 40.775 5.035 2.015-3.024 20.638 0 24.663 3.021 4.025 3.021 20.643 0 26.177-3.021 5.537-2.518 10.07 2.015 15.1 4.532 5.035 11.578 14.603 11.578 16.613 0 2.018-7.043 12.084-9.06 22.653-2.015 10.566-0.502 16.111 1.007 16.613 1.513 0.502-9.06 19.131 2.518 24.162 11.578 5.035 14.096 9.065 14.096 9.065l7.046 3.521s0.502 8.557 4.532 10.066c4.025 1.513 10.059 3.024 9.559 4.532-0.499 1.508-5.988 8.057 0.031 6.542 6.015-1.513 6.022-1.513 6.022-1.513s4.03 6.547 3.527 10.07c-0.499 3.521 1.525 13.591 4.042 17.873 2.518 4.281 18.646 21.978 35.764 17.909 0 0 30.752-0.543 30.752-17.909 0 0-8.469-22.403-8.469-24.416 0-2.015-3.146-8.557-3.146-10.07s13.646-9.06 13.646-9.06v-12.96s2.078-6.673-0.441-8.179c-2.523-1.513 0.441-8.562 0.441-8.562v-5.309s0-6.265-3.927-6.265v-7.517l-1.143-6.08s-3.476-33.222-19.581-48.326c0 0-2.07-20.638 2.965-39.769 5.035-19.126-5.062-21.141-9.087-21.141-4.025 0-14.109-24.162-13.604-32.217 0.502-8.057-0.005-25.671-4.537-27.687-4.532-2.015-20.139-38.258-22.155-42.287-2.015-4.021-7.554-25.671-7.554-25.671s-16.111-81.045-31.712-92.115c0 0-0.502-13.089-4.532-13.089-4.021 0-7.549-4.528-7.549-8.557 0-4.03-1.508-16.608-4.528-16.608-3.024 0-8.557-10.389-8.557-10.389s4.025-5.22 2.015-9.249c-2.015-4.03-6.041-14.603-9.06-14.603-3.024 0-3.024-4.528-3.024-11.574s1.009-21.146-3.521-21.146c-4.528 0-17.115-36.246-19.632-39.769-2.518-3.518-15.097-30.202-12.583-32.217 0 0-5.537-30.704-2.011-43.286 2.635-9.413 1.89-16.857 1.347-20.009 0.4 1.063 1.267 2.345 3.178 2.891 3.527 1.007 6.045-3.021 7.049 2.018 1.007 5.031 3.521 6.036 3.521 6.036l4.532 1.513s3.527 3.518 5.035 3.518 4.532 1.009 6.542 1.513c2.015 0.507 3.024-3.024 6.045 0.507 3.018 3.527-0.003 3.021 3.018 3.527 3.024 0.502 2.015 1.007 6.547-0.507 4.532-1.513-1.513-4.528 7.549-5.537 9.065-1.007 14.096-1.508 16.613-4.021 2.518-2.523 6.542-8.562 7.049-10.066 0.502-1.513 1.508-2.018 3.021-6.045 1.508-4.025 3.021-7.554 4.528-8.553 1.513-1.009 2.015-3.521 3.021-5.035 1.007-1.513 2.518-11.574 2.518-11.574s5.035-5.031 3.527-7.049c-1.513-2.015 2.011-6.54 1.508-8.553-0.502-2.011-0.502-1.998-0.502-1.998s4.025-69.953 2.518-72.971c-1.513-3.024 4.272-20.575-1.89-26.119 0 0 3.967-3.276 3.595-4.398-0.372-1.121 2.843-6.587 0.141-7.737-2.7-1.15-7.18-8.653-7.18-8.653h-3.447s-9.647-22.719-13.549-23.643c-3.903-0.911-13.78-5.217-18.144-1.998-4.364 3.211-9.187 4.113-10.564 1.361-1.379-2.761-8.499-7.253-10.337-7.024-1.839 0.231-12.324-3.758-14.932-1.325-3.443 3.211-8.499-3.879-8.499-3.879s-7.399-8.643-6.303-17.822c1.418-11.885 11.231-25.246 9.295-28.097 0 0-57.654-62.009-96.932-52.133 0 0-22.739 18.148-24.117 27.104 0 0-21.802-6.57-22.876-2.809-1.073 3.758-1.61 16.925 3.495 22.029 0 0-9.94 6.987-12.899 6.452 0 0 2.149 3.492 5.91 1.881 0 0-12.093 7.253-14.508 7.52 0 0 3.618 6.139 9.517 3.725-4.155 2.498-12.387 8.138-11.401 13.18-0.017-0.164-0.059-1.497 2.957-1.798 0 0 1.981 13.646-3.041 16.33 0 0 0.891 0.801 4.113-0.003 0 0-5.345 5.451-4.261 8.974 0.377-0.441 1.154-1.209 2.652-2.528 0 0-2.954 12.358-6.448 12.358-3.495 0-31.436-10.745-40.841-2.957-9.406 7.792-14.24 19.61-14.24 19.61s-11.284 31.17-11.284 41.111c0 0-1.073 8.059-3.762 11.015-2.687 2.954-6.177 15.851-5.91 16.927 0.268 1.076-1.344 19.341-3.492 23.108-2.149 3.758-8.33 6.446-6.987 11.284 1.344 4.831-0.534 10.208-2.149 13.165-1.615 2.957-10.211 7.789-9.134 11.015 1.076 3.225 2.769 5.638-0.095 9.398-2.863 3.766-6.625 10.479-6.354 14.511 0.271 4.025-3.786 13.967-0.014 18.537 3.773 4.569-8.045 14.508 3.508 16.656 0 0 5.104-0.003 3.762 8.594-1.344 8.597 2.416 3.762 4.295 2.957 1.881-0.804-2.421 12.093-0.539 12.63s0.539 7.525 2.687 8.33c2.149 0.804 4.03 2.954 4.03 2.954s7.792 25.522 9.673 27.404c0 0-37.616 77.92-34.93 83.555 2.687 5.648 19.075 7.792 23.377 7.525 0 0 1.344 4.025-1.344 8.062 0 0 2.421 9.134 16.123 7.789 13.703-1.347 50.78-2.151 55.081-8.326 0 0 1.344-4.304 0.539-4.572-0.804-0.268 8.059-2.149 7.525-0.268-0.539 1.881 0.539 31.168-1.881 35.201-2.416 4.025-5.104 29.821-1.344 34.656 3.758 4.834 8.868 28.478 14.78 27.94 5.91-0.543 4.569 7.253 3.492 10.211-1.073 2.954 6.181 26.33 11.286 29.549 5.104 3.225 7.52 23.379 5.644 27.41-1.881 4.025-5.104 23.372-2.151 24.987 2.957 1.61 1.881 19.347 0 20.419-1.881 1.073-6.983 19.075-2.687 21.494 4.295 2.416 1.881 9.134-4.569 14.775-6.448 5.648-6.717 1.076-6.717 2.694 0 1.61-7.525 0.268-8.863 3.22-1.344 2.954-2.957 5.91-2.957 8.062 0 2.149-1.344 7.785-1.344 7.785s-40.564 6.4-97.451 68.819c0 0-40.775 36.242-43.793 36.743-3.018 0.507-70.359-9.564-77.968-4.525-7.627 5.042-9.641 99.177-5.109 114.777z m339.506-797.022s7.937-0.667 7.308-3.247c-0.212-0.866-0.772-4.186-0.288-4.995 0.687-1.15 3.455-0.731 4.615-0.954 1.931-0.385 4.689-1.804 2.277-4.21-1.261-1.261 1.595-3.463 1.725-3.79 0.341-0.86 4.478-1.201 4.478-1.201s5.857 0.357 7.579-2.401c1.722-2.757-1.034-4.802-2.067-6.523-1.034-1.725-1.034-10.639 0.172-13.568 1.209-2.925 5.686-9.213 8.441-9.213 0 0 1.83 1.189 5.857 3.314 4.025 2.116 13.552 2.1 15.066 2.1h13.532l6.853 1.321 2.624 3.766v5.172s-17.715-0.641-19.731 4.39c0 0-2.011 2.969-0.554 5.156 0 0 5.121-1.041 8.971 0.517 0 0 4.591 0.624 4.591 1.878 0 1.249 1.461 3.123 1.461 3.123s2.085 0.934 2.605 0.934c0.524 0 1.774 1.043 2.137 1.878 0.366 0.833 0.677 0.517 1.198 0.833 0.524 0.31 1.041 1.244 1.147 3.018 0.102 1.772 0.413 2.08 0.726 2.914 0.313 0.833 0.524 1.249 1.981 1.249 1.456 0 1.456-0.313 3.018 0 1.563 0.313 1.354 0 3.437 1.249 2.08 1.244 3.537 1.873 4.788 2.809 1.249 0.934 4.681-1.143 4.162 0.934-0.524 2.08 2.39 2.39 2.914 3.847 0.517 1.454 1.143 1.67 2.291 2.291 1.143 0.624 1.35 0.524 3.021 1.454 1.661 0.937 5.929 3.228 6.036 6.249 0.106 3.018 0.441 25.223-1.798 32.455 0 0-9.649 25.497-14.298 31.524 0 0-4.656 2.067-5.341 3.276-0.69 1.206-1.206 4.991-1.034 6.37 0.172 1.383-0.69 3.962-0.69 3.962s-2.93-5.51-3.1-7.753c-0.172-2.238-1.034-4.308-1.892-4.308-0.866 0-1.892-1.379-3.618-1.206-1.722 0.172-1.892-0.347-2.067-2.753-0.17-2.416-2.067-2.93-2.067-2.93s0.172-2.41-1.379-2.41-2.585-1.379-3.102-2.41c-0.513-1.037-2.757-1.037-2.41-2.585 0.347-1.551 0.347-3.443 0.347-3.443s0.687-2.93-0.517-3.102c-1.206-0.17-0.86-0.517-2.067-2.41-1.206-1.892-1.725-3.1-2.41-4.304-0.687-1.206-3.79-7.925-6.201-7.753-2.41 0.17-4.656-1.037-5.857-3.62-1.206-2.585-0.513-14.298-12.23-15.5 0 0-11.021-0.695-15.845-9.824-1.154-2.174-24.918-1.261-25.973-3.024-1.842-3.052 0.703-6.771 1.189-8.538z" fill="#1296db" p-id="58205"></path></svg>