<?xml version="1.0" standalone="no"?><!DOCTYPE svg PUBLIC "-//W3C//DTD SVG 1.1//EN" "http://www.w3.org/Graphics/SVG/1.1/DTD/svg11.dtd"><svg t="1584236086890" class="icon" viewBox="0 0 1024 1024" version="1.1" xmlns="http://www.w3.org/2000/svg" p-id="60102" xmlns:xlink="http://www.w3.org/1999/xlink" width="200" height="200"><defs><style type="text/css"></style></defs><path d="M768 199.111111H199.111111c-62.577778 0-113.777778 51.2-113.777778 113.777778v568.888889c0 22.755556 8.533333 45.511111 19.911111 65.422222 19.911111 11.377778 42.666667 19.911111 65.422223 19.911111h568.888889c62.577778 0 113.777778-51.2 113.777777-113.777778V284.444444c0-22.755556-8.533333-45.511111-19.911111-65.422222-19.911111-11.377778-42.666667-19.911111-65.422222-19.911111z" fill="#B959D5" p-id="60103"></path><path d="M199.111111 199.111111c-62.577778 0-113.777778 51.2-113.777778 113.777778v568.888889c0 8.533333 0 17.066667 2.844445 25.6 8.533333 2.844444 17.066667 2.844444 25.6 2.844444h568.888889c62.577778 0 113.777778-51.2 113.777777-113.777778V227.555556c0-8.533333 0-17.066667-2.844444-25.6-8.533333-2.844444-17.066667-2.844444-25.6-2.844445H199.111111z" fill="#D57CEF" p-id="60104"></path><path d="M739.555556 981.333333H170.666667c-71.111111 0-128-56.888889-128-128V284.444444c0-71.111111 56.888889-128 128-128h568.888889c71.111111 0 128 56.888889 128 128v568.888889c0 71.111111-56.888889 128-128 128zM170.666667 184.888889c-54.044444 0-99.555556 45.511111-99.555556 99.555555v568.888889c0 54.044444 45.511111 99.555556 99.555556 99.555556h568.888889c54.044444 0 99.555556-45.511111 99.555555-99.555556V284.444444c0-54.044444-45.511111-99.555556-99.555555-99.555555H170.666667z" fill="#AF73EB" p-id="60105"></path><path d="M207.644444 389.688889h233.244445v45.511111H258.844444v91.022222h170.666667v45.511111h-170.666667v99.555556h187.733334v45.511111H207.644444V389.688889z m409.6 82.488889c59.733333 0 88.177778 31.288889 88.177778 96.711111v145.066667H654.222222v-139.377778c0-39.822222-17.066667-56.888889-54.044444-56.888889-11.377778 0-22.755556 5.688889-34.133334 14.222222-11.377778 11.377778-17.066667 25.6-19.911111 42.666667v142.222222h-51.2v-236.088889h51.2v28.444445c8.533333-11.377778 19.911111-19.911111 31.288889-25.6 11.377778-8.533333 25.6-11.377778 39.822222-11.377778z" fill="#FFFFFF" p-id="60106"></path><path d="M369.777778 56.888889c-17.066667 0-28.444444 11.377778-28.444445 28.444444s11.377778 28.444444 28.444445 28.444445h494.933333c25.6 0 45.511111 19.911111 45.511111 45.511111V654.222222c0 17.066667 11.377778 28.444444 28.444445 28.444445s28.444444-11.377778 28.444444-28.444445V102.4c0-25.6-19.911111-45.511111-45.511111-45.511111H369.777778z" fill="#AF73EB" p-id="60107"></path></svg>