<?xml version="1.0" standalone="no"?><!DOCTYPE svg PUBLIC "-//W3C//DTD SVG 1.1//EN" "http://www.w3.org/Graphics/SVG/1.1/DTD/svg11.dtd"><svg t="1584235885101" class="icon" viewBox="0 0 1024 1024" version="1.1" xmlns="http://www.w3.org/2000/svg" p-id="53112" xmlns:xlink="http://www.w3.org/1999/xlink" width="200" height="200"><defs><style type="text/css"></style></defs><path d="M888.282 229.232c0-3.882-1.52-7.594-4.306-10.293l-41.267-41.354c-5.654-5.735-14.937-5.735-20.673 0L568.781 430.921c-27.678-21.517-52.575-32.235-75.274-32.235-20.252 0-38.483 8.439-54.092 25.148-12.324 13.165-21.184 29.198-28.188 42.111-4.051 7.339-8.184 15.02-10.8 17.55-7.261 7.261-34.687 16.796-58.99 25.152-40.592 14.092-86.669 30.038-111.223 54.598-32.491 32.49-47.007 77.047-40.848 125.657 5.485 43.966 27.934 88.44 61.521 122.026 39.327 39.328 92.997 62.868 143.548 62.868 40.505 0 76.457-14.599 104.135-42.195 23.965-23.966 38.226-67.174 50.802-105.318 8.608-26.326 17.635-53.584 26.582-62.529 3.461-3.461 11.9-8.27 20.17-12.914 25.906-14.599 61.265-34.596 66.498-73.334 3.461-25.148-7.005-53.081-31.646-84.727l253.255-253.25c2.531-2.786 4.051-6.498 4.051-10.297z" fill="#F44444" p-id="53113"></path><path d="M887.004 215.272l-41.267-41.268c-5.654-5.653-14.937-5.653-20.673 0l-61.941 61.945 61.941 61.941 61.941-61.941c2.703-2.704 4.306-6.416 4.306-10.298a14.629 14.629 0 0 0-4.307-10.379z" fill="#F4DD50" p-id="53114"></path><path d="M390.326 864.985c-51.817 0-106.802-24.05-147.084-64.333-34.387-34.386-57.331-79.926-62.947-124.942-6.347-50.099 8.666-96.204 42.274-129.812 25.289-25.295 71.748-41.423 112.738-55.654l0.381-0.132c20.114-6.916 50.49-17.36 57.094-23.964 1.94-1.877 5.882-9.032 9.049-14.781l0.909-1.65a5.001 5.001 0 0 1 8.755 4.833l-0.906 1.642c-4.875 8.849-8.034 14.414-10.796 17.086-7.572 7.573-31.002 16.027-60.84 26.286l-0.367 0.127c-39.973 13.878-85.28 29.606-108.946 53.277-31.375 31.374-45.375 74.521-39.424 121.494 5.348 42.861 27.251 86.275 60.096 119.119 38.448 38.448 90.789 61.403 140.013 61.403 39.087 0 73.875-14.086 100.604-40.736 23.145-23.146 37.19-65.752 49.583-103.343 10.441-31.931 18.55-55.255 27.796-64.499 3.806-3.806 11.541-8.281 21.257-13.737 24.93-14.05 59.082-33.296 63.991-69.644 3.277-23.815-6.744-50.303-30.636-80.987a5 5 0 0 1 0.41-6.607l253.162-253.157c1.703-1.914 2.679-4.406 2.679-6.855 0-2.582-0.989-4.962-2.785-6.702l-41.327-41.414a9.42 9.42 0 0 0-6.731-2.833h-0.035a9.603 9.603 0 0 0-6.832 2.837L568.208 420.645a5.001 5.001 0 0 1-6.605 0.412c-13.297-10.337-26.072-18.194-37.973-23.351l-0.087-0.039c-5.462-2.363-10.866-4.212-16.062-5.494a5 5 0 0 1 2.397-9.709c5.763 1.423 11.728 3.463 17.73 6.065l0.085 0.038c11.581 5.029 23.854 12.391 36.537 21.912l250.161-250.242c3.722-3.72 8.656-5.766 13.901-5.766h0.074c5.232 0.02 10.132 2.076 13.794 5.791l41.246 41.333c3.697 3.581 5.767 8.512 5.767 13.825 0 4.939-1.95 9.918-5.351 13.66a4.492 4.492 0 0 1-0.165 0.173L633.5 479.406c23.691 31.476 33.498 59.307 29.966 84.971-5.574 41.266-42.23 61.924-68.996 77.008-6.357 3.57-15.954 8.959-19.09 12.094-8.27 8.269-17.748 37.256-25.365 60.547-12.745 38.661-27.187 82.468-52.018 107.3-28.65 28.564-65.88 43.659-107.671 43.659z m44.979-449.961a5 5 0 0 1-3.654-8.413c4.078-4.366 8.398-8.257 12.842-11.565l0.017-0.012c13.516-10.059 28.619-15.159 44.888-15.159a5 5 0 0 1 0 10c-14.067 0-27.158 4.432-38.909 13.174l-0.009 0.007c-3.97 2.954-7.845 6.446-11.52 10.38a4.983 4.983 0 0 1-3.655 1.588z" p-id="53115"></path><path d="M869.436 297.81a4.982 4.982 0 0 1-3.371-1.308l-29.482-26.924a5 5 0 0 1 6.744-7.383l29.482 26.924a4.998 4.998 0 0 1-3.373 8.691zM776.863 205.207a4.984 4.984 0 0 1-3.371-1.308l-29.483-26.924a5 5 0 1 1 6.744-7.385l29.483 26.924a5 5 0 0 1-3.373 8.693zM791.605 190.635a4.98 4.98 0 0 1-3.37-1.308l-17.38-15.87a5 5 0 0 1 6.742-7.385l17.38 15.87a4.999 4.999 0 0 1-3.372 8.693zM875.125 270.886a4.98 4.98 0 0 1-3.37-1.308l-17.379-15.87a5 5 0 0 1 6.742-7.385l17.379 15.87a4.999 4.999 0 0 1-3.372 8.693zM806.346 177.173a4.984 4.984 0 0 1-3.371-1.308l-29.482-26.923a5 5 0 1 1 6.744-7.385l29.482 26.923a5 5 0 0 1-3.373 8.693zM903.023 262.951a4.984 4.984 0 0 1-3.371-1.308l-29.483-26.924a5 5 0 0 1 6.744-7.383l29.483 26.924a4.998 4.998 0 0 1-3.373 8.691z" p-id="53116"></path><path d="M729.109 331.99m-13.239 0a13.239 13.239 0 1 0 26.478 0 13.239 13.239 0 1 0-26.478 0Z" fill="#C13E3E" p-id="53117"></path><path d="M722.72 310.95c7.564 0 13.696 6.132 13.696 13.696s-6.132 13.696-13.696 13.696-13.696-6.132-13.696-13.696c0-4.296 1.978-8.13 5.072-10.641" fill="#F4DD50" p-id="53118"></path><path d="M722.72 340.342c-8.654 0-15.695-7.041-15.695-15.696 0-4.752 2.118-9.196 5.811-12.194a2 2 0 0 1 2.521 3.105 11.66 11.66 0 0 0-4.332 9.088c0 6.449 5.246 11.696 11.695 11.696s11.696-5.247 11.696-11.696-5.247-11.696-11.696-11.696a2 2 0 0 1 0-4c8.655 0 15.696 7.041 15.696 15.696s-7.041 15.697-15.696 15.697z" p-id="53119"></path><path d="M693.035 369.633m-13.522 0a13.522 13.522 0 1 0 27.044 0 13.522 13.522 0 1 0-27.044 0Z" fill="#C13E3E" p-id="53120"></path><path d="M686.508 362.132m-13.99 0a13.99 13.99 0 1 0 27.98 0 13.99 13.99 0 1 0-27.98 0Z" fill="#F4DD50" p-id="53121"></path><path d="M686.508 378.122c-8.817 0-15.99-7.173-15.99-15.99s7.173-15.99 15.99-15.99 15.99 7.173 15.99 15.99-7.173 15.99-15.99 15.99z m0-27.98c-6.611 0-11.99 5.378-11.99 11.99s5.379 11.99 11.99 11.99 11.99-5.379 11.99-11.99-5.379-11.99-11.99-11.99z" p-id="53122"></path><path d="M650.492 405.269m-13.522 0a13.522 13.522 0 1 0 27.044 0 13.522 13.522 0 1 0-27.044 0Z" fill="#C13E3E" p-id="53123"></path><path d="M643.966 397.768m-13.99 0a13.99 13.99 0 1 0 27.98 0 13.99 13.99 0 1 0-27.98 0Z" fill="#F4DD50" p-id="53124"></path><path d="M643.966 413.758c-8.817 0-15.99-7.173-15.99-15.99s7.173-15.99 15.99-15.99 15.99 7.173 15.99 15.99-7.173 15.99-15.99 15.99z m0-27.98c-6.611 0-11.99 5.379-11.99 11.99s5.379 11.99 11.99 11.99 11.99-5.378 11.99-11.99-5.379-11.99-11.99-11.99z" p-id="53125"></path><path d="M464.566 611.04m-69.566 0a69.566 69.566 0 1 0 139.132 0 69.566 69.566 0 1 0-139.132 0Z" fill="#C13E3E" p-id="53126"></path><path d="M465.984 608.217c-9.501 9.503-24.856 9.503-34.357 0-9.503-9.501-9.503-24.856 0-34.357 9.501-9.501 24.856-9.501 34.357 0 9.455 9.456 9.455 24.856 0 34.357z" fill="#FFFFFF" p-id="53127"></path><path d="M448.788 519.54c-39.488 0-71.5 32.012-71.5 71.5s32.012 71.5 71.5 71.5 71.5-32.012 71.5-71.5c0-39.489-32.012-71.5-71.5-71.5z m0 99.817c-15.639 0-28.317-12.678-28.317-28.317s12.678-28.317 28.317-28.317 28.317 12.678 28.317 28.317c-0.001 15.639-12.678 28.317-28.317 28.317z" fill="#F4DD50" p-id="53128"></path><path d="M448.788 667.54c-42.182 0-76.5-34.317-76.5-76.5s34.318-76.5 76.5-76.5 76.5 34.317 76.5 76.5-34.318 76.5-76.5 76.5z m0-143c-36.668 0-66.5 29.832-66.5 66.5s29.832 66.5 66.5 66.5 66.5-29.832 66.5-66.5-29.831-66.5-66.5-66.5z m0 99.817c-18.371 0-33.317-14.946-33.317-33.317s14.946-33.317 33.317-33.317 33.317 14.946 33.317 33.317c-0.001 18.371-14.947 33.317-33.317 33.317z m0-56.634c-12.857 0-23.317 10.46-23.317 23.317s10.46 23.317 23.317 23.317c12.856 0 23.316-10.46 23.317-23.317 0-12.857-10.46-23.317-23.317-23.317z" p-id="53129"></path><path d="M395.999 739.606c-3.249 0-6.501-1.21-9.024-3.644l-85-82c-5.167-4.985-5.315-13.215-0.33-18.382s13.215-5.314 18.382-0.331l85 82c5.167 4.985 5.315 13.215 0.33 18.382a12.964 12.964 0 0 1-9.358 3.975z" fill="#F4DD50" p-id="53130"></path><path d="M401.017 734.606c-3.249 0-6.501-1.21-9.024-3.644l-85-82c-5.167-4.985-5.315-13.215-0.33-18.382s13.215-5.314 18.382-0.331l85 82c5.167 4.985 5.315 13.215 0.33 18.382a12.964 12.964 0 0 1-9.358 3.975z" p-id="53131"></path><path d="M492.502 288.981c-0.345 0.025-0.696-0.148-1.053-0.52-0.357-0.373-0.733-1.116-1.128-2.232-0.647-1.811-1.558-3.051-2.731-3.721-1.173-0.669-2.829-0.97-4.968-0.902-2.244 0.041-4.335-0.415-6.271-1.367-1.936-0.953-3.58-1.882-4.93-2.788-1.271-0.773-2.162-0.954-2.673-0.541-0.511 0.412-0.682 1.001-0.515 1.766l2.152 9.819c0.586 2.676 1.208 5.569 1.865 8.681a1214.95 1214.95 0 0 0 1.896 8.824l2.498 11.396c0.299 1.136 0.4 2.454 0.303 3.952s-0.571 2.992-1.422 4.481c-0.851 1.488-2.111 2.879-3.781 4.172-1.67 1.292-3.875 2.314-6.615 3.064-2.788 0.761-5.442 0.817-7.963 0.168-2.521-0.649-4.594-1.71-6.218-3.181-1.625-1.472-2.653-3.25-3.085-5.334-0.432-2.083 0.037-4.227 1.408-6.43 1.37-2.203 3.004-3.889 4.902-5.056 1.897-1.167 3.794-1.996 5.69-2.487 1.896-0.49 3.632-0.733 5.211-0.729 1.578 0.005 2.757 0.072 3.537 0.201l-4.446-20.284a2903.676 2903.676 0 0 1-4.107-19.081c-0.304-1.386-0.194-2.599 0.329-3.64s1.366-1.764 2.529-2.169c0.972-0.363 1.841-0.341 2.606 0.067 0.766 0.408 1.59 1.029 2.474 1.862a62.758 62.758 0 0 0 3.203 2.791c1.252 1.028 2.845 1.956 4.779 2.784 1.674 0.785 3.101 1.298 4.281 1.54 1.18 0.243 2.28 0.465 3.301 0.666 1.021 0.202 2.048 0.49 3.082 0.865s2.241 1.086 3.623 2.136c1.371 1.002 2.323 2.145 2.855 3.431s0.811 2.501 0.837 3.647-0.124 2.118-0.45 2.916c-0.325 0.796-0.66 1.208-1.005 1.233z" fill="#F4DD50" p-id="53132"></path><path d="M460.732 335.181c-1.337 0-2.663-0.167-3.94-0.496-2.746-0.707-5.051-1.892-6.851-3.522-1.858-1.683-3.051-3.749-3.547-6.142-0.511-2.463 0.028-4.996 1.603-7.526 1.488-2.393 3.302-4.257 5.39-5.542 2.015-1.24 4.068-2.135 6.1-2.661 1.994-0.516 3.861-0.777 5.549-0.777 0.618 0.002 1.174 0.012 1.673 0.032l-4.01-18.293a2959.55 2959.55 0 0 1-4.109-19.091c-0.376-1.713-0.223-3.272 0.456-4.625 0.702-1.397 1.837-2.377 3.376-2.912 1.307-0.489 2.666-0.448 3.805 0.16 0.889 0.474 1.804 1.159 2.797 2.094 0.85 0.801 1.901 1.717 3.126 2.723 1.136 0.934 2.623 1.796 4.417 2.565 1.603 0.751 2.931 1.231 3.992 1.45 1.177 0.242 2.272 0.463 3.29 0.664 1.095 0.217 2.206 0.528 3.303 0.926 1.188 0.431 2.503 1.2 4.019 2.352 1.568 1.146 2.698 2.515 3.334 4.052 0.601 1.453 0.92 2.861 0.95 4.187 0.031 1.348-0.158 2.531-0.561 3.517-0.208 0.508-0.839 2.057-2.286 2.162l-0.173 0.006c-0.748 0-1.444-0.331-2.07-0.984-0.519-0.542-0.983-1.422-1.46-2.77-0.518-1.451-1.212-2.434-2.061-2.919-0.92-0.525-2.333-0.759-4.176-0.705l-0.324 0.003c-2.361 0-4.6-0.513-6.656-1.523-1.989-0.979-3.707-1.951-5.104-2.888-0.425-0.257-0.719-0.383-0.905-0.444 0.004 0.03 0.01 0.064 0.018 0.103l2.152 9.818c0.586 2.68 1.209 5.576 1.867 8.692 0.656 3.107 1.287 6.044 1.894 8.813l2.498 11.396c0.324 1.227 0.441 2.717 0.335 4.37-0.112 1.721-0.656 3.446-1.617 5.128-0.946 1.655-2.348 3.207-4.165 4.614-1.82 1.408-4.221 2.526-7.138 3.325a18.257 18.257 0 0 1-4.791 0.668z m4.337-23.665c-1.468 0-3.082 0.229-4.831 0.681-1.743 0.451-3.519 1.229-5.28 2.313-1.688 1.038-3.174 2.576-4.414 4.57-1.17 1.881-1.567 3.625-1.213 5.333 0.369 1.782 1.227 3.263 2.623 4.527 1.436 1.3 3.314 2.256 5.585 2.84 2.259 0.583 4.671 0.527 7.194-0.163 2.535-0.693 4.585-1.637 6.092-2.803 1.504-1.164 2.647-2.419 3.396-3.73 0.733-1.282 1.146-2.572 1.228-3.833 0.086-1.33 0-2.499-0.257-3.474l-2.513-11.456c-0.607-2.776-1.24-5.72-1.898-8.835a1182.69 1182.69 0 0 0-1.862-8.67l-2.152-9.819c-0.29-1.326 0.08-2.481 1.039-3.255a2.531 2.531 0 0 1 1.613-0.547c0.804 0 1.687 0.31 2.781 0.975 1.343 0.899 2.943 1.803 4.813 2.724 1.64 0.807 3.434 1.215 5.332 1.215l0.25-0.002c0.193-0.006 0.401-0.01 0.606-0.01 2.146 0 3.825 0.362 5.132 1.108 1.489 0.851 2.633 2.371 3.4 4.52 0.193 0.545 0.356 0.923 0.484 1.181 0.177-0.559 0.258-1.243 0.24-2.04-0.021-0.953-0.265-1.999-0.724-3.107-0.422-1.021-1.214-1.96-2.354-2.793-1.276-0.969-2.362-1.615-3.25-1.937a19.58 19.58 0 0 0-2.862-0.804 415.458 415.458 0 0 1-3.313-0.668c-1.31-0.269-2.82-0.809-4.615-1.651-2.009-0.859-3.739-1.87-5.094-2.983a63.97 63.97 0 0 1-3.28-2.859c-0.785-0.739-1.508-1.287-2.15-1.629-0.387-0.206-0.817-0.194-1.376 0.015-0.83 0.289-1.364 0.742-1.713 1.437-0.368 0.731-0.435 1.597-0.204 2.646a2907.657 2907.657 0 0 0 4.107 19.081l4.919 22.446-2.184-0.361c-0.695-0.117-1.804-0.178-3.295-0.183z" p-id="53133"></path><path d="M780.817 489.682l-8.331 51.438c-0.249 1.538-0.995 2.81-2.229 3.836-1.235 1.026-2.703 1.739-4.396 2.141a26.859 26.859 0 0 1-4.987 0.702c-1.627 0.06-3.127-0.006-4.512-0.23-1.386-0.224-2.831-0.626-4.354-1.206a25.648 25.648 0 0 1-4.51-2.241c-1.479-0.916-2.648-2.056-3.495-3.419-0.848-1.363-1.152-2.814-0.905-4.343 0.248-1.529 0.995-2.81 2.229-3.835 1.235-1.026 2.702-1.729 4.396-2.141a26.859 26.859 0 0 1 4.987-0.702c1.628-0.06 3.127 0.007 4.512 0.231 3.219 0.521 6.055 1.598 8.529 3.214l3.991-24.64-37.036 5.169-5.273 32.56c-0.248 1.529-0.994 2.81-2.229 3.835-1.235 1.026-2.702 1.729-4.396 2.141a26.87 26.87 0 0 1-4.987 0.702c-1.627 0.06-3.126-0.007-4.512-0.231-1.385-0.224-2.83-0.625-4.354-1.205-1.526-0.571-3.031-1.324-4.51-2.24s-2.647-2.057-3.495-3.419c-0.848-1.363-1.152-2.814-0.905-4.343 0.249-1.538 0.994-2.81 2.229-3.835 1.235-1.026 2.702-1.73 4.396-2.141a26.859 26.859 0 0 1 4.987-0.702c1.627-0.06 3.127 0.006 4.512 0.23 3.22 0.521 6.055 1.599 8.529 3.215l7.192-44.407a4.308 4.308 0 0 1 1.29-2.457 4.603 4.603 0 0 1 2.519-1.269l40.11-5.563c0.383-0.065 0.823-0.053 1.31 0.026 1.223 0.198 2.206 0.789 2.917 1.786 0.727 1.01 0.977 2.129 0.781 3.343z" fill="#F44444" p-id="53134"></path><path d="M716.715 554.415c-1.323 0-2.516-0.089-3.646-0.271-1.47-0.237-3.034-0.669-4.648-1.284a27.277 27.277 0 0 1-4.766-2.366c-1.674-1.037-3.013-2.35-3.979-3.902-1.044-1.676-1.418-3.484-1.112-5.374 0.306-1.891 1.231-3.489 2.751-4.75 1.39-1.154 3.072-1.977 5.001-2.445a28.523 28.523 0 0 1 5.275-0.742c1.813-0.065 3.366 0.014 4.816 0.248 2.589 0.419 4.987 1.192 7.157 2.306l6.844-42.257a5.787 5.787 0 0 1 1.726-3.294 6.092 6.092 0 0 1 3.323-1.673l40.145-5.568c0.433-0.075 1.094-0.077 1.757 0.031 1.62 0.263 2.968 1.091 3.898 2.396 0.951 1.323 1.303 2.823 1.041 4.452l-8.332 51.44c-0.306 1.888-1.231 3.485-2.751 4.749-1.405 1.169-3.091 1.992-5.009 2.447a28.59 28.59 0 0 1-5.267 0.741c-1.819 0.066-3.368-0.014-4.817-0.248-1.492-0.241-3.013-0.662-4.649-1.285a27.267 27.267 0 0 1-4.767-2.368c-1.676-1.037-3.015-2.351-3.979-3.902-1.043-1.677-1.417-3.485-1.111-5.373 0.307-1.891 1.232-3.489 2.752-4.75 1.386-1.152 3.067-1.975 4.999-2.444a28.482 28.482 0 0 1 5.275-0.744c1.819-0.068 3.367 0.016 4.817 0.25 2.589 0.418 4.987 1.191 7.157 2.305l3.318-20.484-33.927 4.736-5.097 31.467c-0.307 1.891-1.232 3.488-2.751 4.749-1.388 1.152-3.07 1.976-5 2.444-1.78 0.419-3.552 0.668-5.275 0.743-0.402 0.012-0.788 0.02-1.169 0.02z m-3.945-18.158c-0.346 0-0.698 0.007-1.057 0.021a25.393 25.393 0 0 0-4.699 0.662c-1.491 0.362-2.731 0.963-3.781 1.835-0.959 0.796-1.518 1.752-1.707 2.921-0.188 1.17 0.04 2.253 0.698 3.311 0.72 1.157 1.733 2.146 3.012 2.937a24.253 24.253 0 0 0 4.245 2.11c1.433 0.546 2.798 0.925 4.067 1.13 1.257 0.202 2.656 0.271 4.218 0.212a25.418 25.418 0 0 0 4.698-0.662c1.493-0.363 2.733-0.965 3.781-1.835 0.959-0.796 1.517-1.751 1.707-2.922l5.273-32.56a1.501 1.501 0 0 1 1.273-1.246l37.036-5.169a1.5 1.5 0 0 1 1.687 1.726l-3.991 24.641a1.498 1.498 0 0 1-2.301 1.016c-2.3-1.503-4.974-2.508-7.948-2.989-1.253-0.202-2.653-0.269-4.218-0.213-1.53 0.067-3.114 0.291-4.698 0.663-1.493 0.363-2.733 0.965-3.78 1.835-0.96 0.797-1.519 1.752-1.708 2.922-0.188 1.168 0.04 2.251 0.698 3.311 0.718 1.155 1.73 2.143 3.012 2.936a24.278 24.278 0 0 0 4.246 2.112c1.451 0.552 2.779 0.921 4.068 1.13 1.251 0.201 2.653 0.271 4.216 0.211a25.401 25.401 0 0 0 4.698-0.663c1.462-0.347 2.734-0.964 3.781-1.834 0.96-0.798 1.519-1.754 1.708-2.922l8.331-51.438c0.135-0.84-0.03-1.548-0.519-2.228-0.472-0.661-1.104-1.046-1.939-1.182-0.303-0.049-0.582-0.069-0.819-0.027l-40.154 5.57a3.076 3.076 0 0 0-1.681 0.86 2.807 2.807 0 0 0-0.854 1.621l-7.191 44.407a1.498 1.498 0 0 1-2.301 1.016c-2.3-1.502-4.975-2.508-7.949-2.99a19.165 19.165 0 0 0-3.158-0.236z" p-id="53135"></path><path d="M258.81 388.077c-2.992 5.099-4.712 10.275-2.708 15.365-0.398 0.023 0.99 1.014 0.593 1.063 0.122 0.38 0.255 0.757 0.401 1.128-3.87 0.223-7.661 1.686-10.783 4.212a18.833 18.833 0 0 0-3.353 3.676c-2.327 3.972-3.162 8.719-2.161 13.265 1.427 6.702 6.491 11.684 12.909 13.804 6.587 2.228 14.492 1.649 21.799-0.104 6.789-1.688 13.023-4.366 17.221-6.838 2.077-1.212 3.581-2.363 4.43-3.329 1.511-3.487 2.216-13.596 0.182-23.865-1.456-7.276-4.25-14.693-9.093-19.772-4.654-4.879-11.302-7.383-17.984-5.864-4.391 0.965-8.72 3.325-11.453 7.259z" fill="#F44444" p-id="53136"></path><path d="M270.088 380.704c-4.391 0.966-8.72 3.327-11.453 7.261-0.23 0.392-0.451 0.784-0.665 1.177 2.742-3.446 6.766-5.547 10.844-6.444 6.682-1.519 13.33 0.986 17.984 5.864 4.844 5.079 7.637 12.496 9.093 19.772 1.846 9.318 1.436 18.506 0.215 22.732 0.343-0.3 0.637-0.588 0.877-0.861 1.511-3.487 2.216-13.596 0.182-23.865-1.456-7.276-4.25-14.693-9.093-19.772-4.655-4.878-11.303-7.383-17.984-5.864z" fill="#9B2F2F" p-id="53137"></path><path d="M262.252 444.052c-3.351 0-6.786-0.409-10.001-1.497-7.05-2.329-12.124-7.766-13.566-14.543-1.531-6.958 1.076-14.478 6.641-19.152 2.906-2.352 6.43-3.858 10.053-4.322-1.764-5.52-0.995-11.42 2.175-16.378a19.62 19.62 0 0 1 6.926-6.555 0.997 0.997 0 0 1 1.36 0.386 0.998 0.998 0 0 1-0.386 1.36 17.603 17.603 0 0 0-6.215 5.886c-3.06 4.786-3.627 10.548-1.556 15.811a0.998 0.998 0 0 1-0.873 1.364c-3.666 0.211-7.292 1.628-10.212 3.991-4.988 4.19-7.332 10.94-5.958 17.186 1.294 6.08 5.872 10.963 12.246 13.069 7.109 2.404 15.48 1.258 21.252-0.126 5.983-1.488 12.321-4.003 16.947-6.728 3.24-1.89 4.266-3.153 4.557-3.608 1.582-2.474 2.513-12.962 0.373-23.766-1.156-5.778-3.628-13.815-8.836-19.276-4.639-4.864-11.01-6.949-17.039-5.579a17.05 17.05 0 0 0-1.9 0.533 1.001 1.001 0 0 1-0.652-1.891c0.69-0.238 1.402-0.438 2.116-0.594 6.715-1.528 13.792 0.771 18.922 6.15 5.538 5.808 8.142 14.227 9.35 20.266 2.097 10.583 1.386 22.05-0.649 25.234-1.014 1.587-3.404 3.191-5.23 4.256-4.85 2.856-11.224 5.388-17.483 6.944-3.469 0.833-7.839 1.579-12.362 1.579z" p-id="53138"></path><path d="M243.988 431.647a1.5 1.5 0 0 1-1.334-0.812 17.718 17.718 0 0 1-1.152-2.792 1.5 1.5 0 1 1 2.861-0.901c0.25 0.794 0.572 1.573 0.956 2.315a1.5 1.5 0 0 1-1.331 2.19zM242.174 423.224c-0.025 0-0.05 0-0.075-0.002a1.5 1.5 0 0 1-1.424-1.572c0.031-0.62 0.094-1.245 0.188-1.858a1.5 1.5 0 0 1 2.966 0.454 15.247 15.247 0 0 0-0.157 1.552 1.502 1.502 0 0 1-1.498 1.426z" fill="#FFFFFF" p-id="53139"></path><path d="M242.731 419.686a1.502 1.502 0 0 1-1.451-1.888 18.8 18.8 0 0 1 1.941-4.644 1.5 1.5 0 1 1 2.588 1.518 15.764 15.764 0 0 0-1.631 3.902 1.499 1.499 0 0 1-1.447 1.112z" fill="#FFFFFF" p-id="53140"></path><path d="M327.574 348.65c-5.399 1.862-9.913 4.58-11.64 9.574-0.307-0.233 0.089 1.366-0.232 1.153-0.149 0.355-0.288 0.715-0.415 1.08-2.98-2.268-6.682-3.576-10.559-3.683a18.192 18.192 0 0 0-4.77 0.591c-4.203 1.453-7.798 4.412-9.92 8.376-3.164 5.815-2.577 12.652 0.801 18.24 3.434 5.773 9.599 10.315 16.063 13.619 6.043 3.027 12.3 4.977 16.933 5.801 2.286 0.416 4.112 0.515 5.342 0.341 3.299-1.609 10.168-8.585 15.127-17.399 3.503-6.254 6.112-13.453 5.749-20.223-0.351-6.504-3.656-12.519-9.513-15.602-3.829-2.05-8.489-3.037-12.966-1.868z" fill="#F4DD50" p-id="53141"></path><path d="M340.482 350.325c-3.829-2.049-8.489-3.037-12.966-1.867-0.415 0.143-0.824 0.292-1.227 0.446 4.177-0.806 8.45 0.181 12.006 2.084 5.857 3.083 9.163 9.098 9.513 15.602 0.363 6.77-2.246 13.969-5.749 20.223-4.5 7.998-10.573 14.483-14.124 16.817 0.44-0.005 0.837-0.031 1.184-0.08 3.299-1.609 10.168-8.585 15.127-17.398 3.503-6.254 6.112-13.453 5.749-20.223-0.35-6.506-3.655-12.521-9.513-15.604z" fill="#B7A448" p-id="53142"></path><path d="M326.394 404.857c-1.41 0-2.955-0.212-4.208-0.439-5.362-0.954-11.633-3.102-17.202-5.891-5.344-2.731-12.532-7.373-16.475-14.001-3.717-6.148-4.025-13.339-0.82-19.229 3.226-6.026 9.791-9.901 16.758-9.901l0.177 0.001c3.603 0.099 7.128 1.201 10.077 3.126 2.182-5.148 6.453-8.988 11.891-10.634a18.969 18.969 0 0 1 9.216-0.459 1 1 0 1 1-0.395 1.961c-2.699-0.545-5.55-0.401-8.242 0.413-5.242 1.587-9.27 5.452-11.053 10.604a1 1 0 0 1-1.55 0.469c-2.817-2.144-6.361-3.379-9.981-3.479-6.292-0.055-12.229 3.415-15.138 8.85-2.865 5.265-2.574 11.711 0.775 17.251 3.702 6.225 10.56 10.638 15.662 13.246 5.317 2.664 11.545 4.799 16.653 5.708 3.557 0.646 5.097 0.366 5.595 0.216 2.709-0.82 9.972-7.925 15.185-17.19 2.779-4.962 6.012-12.406 5.622-19.679-0.35-6.473-3.707-11.995-8.98-14.771-0.561-0.3-1.14-0.569-1.727-0.801a1 1 0 1 1 0.736-1.86c0.658 0.26 1.307 0.562 1.929 0.895 5.896 3.104 9.652 9.247 10.04 16.43 0.416 7.751-2.966 15.571-5.875 20.765-5.114 9.09-12.85 17.066-16.35 18.125-0.66 0.197-1.465 0.274-2.32 0.274z" p-id="53143"></path><path d="M289.857 374.322h-0.033a1 1 0 0 1-0.967-1.032c0.037-1.123 0.183-2.235 0.435-3.307a1.001 1.001 0 0 1 1.948 0.458 14.84 14.84 0 0 0-0.383 2.915 1 1 0 0 1-1 0.966z" fill="#FFFFFF" p-id="53144"></path><path d="M290.268 371.211a1 1 0 0 1-0.975-1.227c0.214-0.918 0.512-1.826 0.883-2.7a1 1 0 0 1 1.841 0.783 14.552 14.552 0 0 0-0.777 2.372 0.998 0.998 0 0 1-0.972 0.772z" fill="#FFFFFF" p-id="53145"></path><path d="M291.7 368.881l-1.851-0.759c0.361-0.852 0.795-1.86 1.028-2.289a1 1 0 1 1 1.758 0.954c-0.216 0.4-0.757 1.675-0.935 2.094zM294.226 363.889a1.001 1.001 0 0 1-0.728-1.687c0.398-0.421 0.826-0.83 1.272-1.214a1 1 0 0 1 1.305 1.515c-0.394 0.339-0.772 0.7-1.123 1.072a0.99 0.99 0 0 1-0.726 0.314z" fill="#FFFFFF" p-id="53146"></path><path d="M296.859 361.643a1 1 0 0 1-0.567-1.825 17.69 17.69 0 0 1 4.235-2.135 1.001 1.001 0 0 1 0.653 1.891 15.631 15.631 0 0 0-3.755 1.893 1 1 0 0 1-0.566 0.176z" fill="#FFFFFF" p-id="53147"></path><path d="M387.594 840.439a5 5 0 1 1 0-10c1.726 0 3.467-0.03 5.174-0.091l0.099-0.002c3.586-0.128 7.167-0.389 10.643-0.774h0.001c25.808-2.858 48.764-12.574 68.23-28.876a5 5 0 1 1 6.421 7.666c-21.003 17.59-45.749 28.07-73.55 31.149-3.758 0.417-7.625 0.697-11.494 0.832l-0.098 0.002c-1.792 0.063-3.617 0.094-5.426 0.094z m-19.1-1.18c-0.202 0-0.407-0.013-0.613-0.038-6.534-0.798-13.175-2-19.738-3.571l-0.011-0.002c-9.761-2.337-19.557-5.534-29.118-9.504a5 5 0 0 1 3.835-9.236c9.073 3.768 18.362 6.8 27.609 9.014a5 5 0 0 1 18.036 13.337z m125.043-49.428a5.001 5.001 0 0 1-4.057-7.916c3.117-4.341 6.203-9.323 9.172-14.811l0.001-0.003a197.365 197.365 0 0 0 4.148-8.128 5 5 0 1 1 9.007 4.346 206.065 206.065 0 0 1-4.36 8.54l-0.001 0.003c-3.169 5.858-6.481 11.203-9.844 15.885a4.996 4.996 0 0 1-4.066 2.084z" fill="#FFFFFF" p-id="53148"></path></svg>