<?xml version="1.0" standalone="no"?><!DOCTYPE svg PUBLIC "-//W3C//DTD SVG 1.1//EN" "http://www.w3.org/Graphics/SVG/1.1/DTD/svg11.dtd"><svg t="1584236541829" class="icon" viewBox="0 0 1024 1024" version="1.1" xmlns="http://www.w3.org/2000/svg" p-id="1537" xmlns:xlink="http://www.w3.org/1999/xlink" width="200" height="200"><defs><style type="text/css"></style></defs><path d="M632.32 776.16c0 12.64 4.32 1.76-30.88 1.76A114.56 114.56 0 0 0 496 848a113.76 113.76 0 0 0-151.36 0A114.56 114.56 0 0 0 240 777.92c-35.2 0-30.88 10.72-30.88-1.44a114.24 114.24 0 0 0-94.72-112A114.24 114.24 0 0 0 80 516.16 114.24 114.24 0 0 0 113.6 368a114.24 114.24 0 0 0 94.4-117.92 114.4 114.4 0 0 0 136.48-65.76 113.76 113.76 0 0 0 151.36 0 114.24 114.24 0 0 0 105.28 70.08c35.36 0 31.04-10.88 31.04 1.76z" fill="#FD7504" p-id="1538"></path><path d="M561.92 681.76A224 224 0 0 1 192 512c0-196.48 236.96-297.92 378.4-162.08a231.52 231.52 0 0 0-8.48 331.84z" fill="#FDA736" p-id="1539"></path><path d="M466.24 556.96A106.88 106.88 0 0 1 368 704a224.96 224.96 0 0 1-98.72-22.88 224 224 0 0 1 252.8-366.24v3.04A230.56 230.56 0 0 0 448 488a214.88 214.88 0 0 0 18.24 68.96z" fill="#FED370" p-id="1540"></path><path d="M561.92 681.76a231.52 231.52 0 0 1 8.48-331.84 224 224 0 0 1-8.48 331.84z" fill="#FDA736" p-id="1541"></path><path d="M960 520c0 209.44-256 309.44-398.08 161.76C420.16 538.08 521.28 288 728 288A232 232 0 0 1 960 520z" fill="#6163AA" p-id="1542"></path><path d="M888 448a232.16 232.16 0 0 1-356 196A232.16 232.16 0 0 1 728 288a229.6 229.6 0 0 1 124 36A229.6 229.6 0 0 1 888 448z" fill="#898EC9" p-id="1543"></path><path d="M572.96 700.16c-19.2 0-91.52-81.92-91.52-185.12a243.52 243.52 0 0 1 80-179.52 16 16 0 0 1 21.44 23.68A211.2 211.2 0 0 0 583.68 672a16 16 0 0 1-10.72 28.16zM354.72 749.28c-39.84 0-177.28-80-177.28-233.12a242.72 242.72 0 0 1 331.04-226.08 16 16 0 1 1-11.36 29.92 210.72 210.72 0 1 0-137.76 397.92 16 16 0 0 1-4.64 31.36zM416 758.88a136.16 136.16 0 0 1-18.24-1.12 16 16 0 0 1 3.84-32 139.52 139.52 0 0 0 14.4 0 16 16 0 0 1 0 33.12z" fill="#35214C" p-id="1544"></path><path d="M572.96 700.16c-19.2 0-91.52-81.92-91.52-185.12a243.52 243.52 0 0 1 80-179.52 16 16 0 0 1 21.44 23.68A211.2 211.2 0 0 0 583.68 672a16 16 0 0 1-10.72 28.16z" fill="#35214C" p-id="1545"></path><path d="M354.72 749.28c-39.84 0-177.28-80-177.28-233.12a243.04 243.04 0 0 1 358.4-213.6 16 16 0 0 1-16 28.16 210.72 210.72 0 1 0-161.12 387.2 16 16 0 0 1-4 31.36zM464 754.88a16 16 0 0 1-3.04-32 208.8 208.8 0 0 0 74.56-29.92A16 16 0 0 1 552.16 720 236 236 0 0 1 464 754.88zM416 758.88a136.16 136.16 0 0 1-18.24-1.12 16 16 0 0 1 3.84-32 139.52 139.52 0 0 0 14.4 0 16 16 0 0 1 0 33.12z" fill="#35214C" p-id="1546"></path><path d="M496 597.76a243.04 243.04 0 0 1 172.96-319.04 16 16 0 0 1 7.36 31.04 210.88 210.88 0 1 0 225.6 319.04 16 16 0 0 1 26.88 17.28A243.2 243.2 0 0 1 496 597.76zM926.56 574.56A210.88 210.88 0 0 0 736 304a16 16 0 1 1 0-32c155.84 4.64 265.28 162.24 220.8 311.2a16 16 0 0 1-30.24-8.64zM127.04 451.68a16 16 0 0 1-16-17.76 98.88 98.88 0 0 0-11.52-57.6A16 16 0 0 1 110.88 352 97.92 97.92 0 0 0 192 251.36a16 16 0 0 1 20.32-16 98.24 98.24 0 0 0 117.44-56.64 16 16 0 0 1 11.2-9.44c17.92-4 27.2 28.48 79.2 28.48a98.08 98.08 0 0 0 65.12-24.8 16 16 0 0 1 25.28 5.76 98.08 98.08 0 0 0 90.56 60.32c26.88 0 30.72-9.28 41.28-0.8a19.84 19.84 0 0 1 5.92 17.76 16 16 0 0 1-25.92 12.64A130.08 130.08 0 0 1 490.56 208a132.48 132.48 0 0 1-140.48 0A129.92 129.92 0 0 1 224 269.44a130.08 130.08 0 0 1-88 109.76 128.8 128.8 0 0 1 8 44.16c0 13.28-0.96 28.32-16.96 28.32zM496 864c-14.4 0-27.52-28.8-75.68-28.8a98.08 98.08 0 0 0-65.12 24.8 16 16 0 0 1-25.28-5.76 98.4 98.4 0 0 0-117.44-56.64 16 16 0 0 1-20.32-16 97.76 97.76 0 0 0-81.28-101.28 16 16 0 0 1-11.2-24.32 98.24 98.24 0 0 0-28.96-126.88 16 16 0 0 1 0-25.92c16-11.84 19.68-24.64 32-24.64a16 16 0 0 1 11.04 27.52l-9.44 9.76a130.24 130.24 0 0 1 32 137.28A130.08 130.08 0 0 1 224 762.88a129.76 129.76 0 0 1 126.4 60.96 133.12 133.12 0 0 1 140.48 0 130.08 130.08 0 0 1 131.84-60.16 16 16 0 0 1 25.92 12.48v4.8a16 16 0 0 1-20.32 16 98.4 98.4 0 0 0-117.44 56.64A16 16 0 0 1 496 864z" fill="#35214C" p-id="1547"></path><path d="M643.52 743.2c-13.6 0-108.16-39.68-147.84-145.44A242.88 242.88 0 0 1 637.12 288a16 16 0 0 1 11.2 29.76c-178.4 67.84-180.96 324 0.96 393.92a16 16 0 0 1-5.76 31.52zM872 480a56 56 0 1 1 56-56 56 56 0 0 1-56 56z m0-80a24 24 0 0 0 0 48 24 24 0 0 0 0-48z" fill="#35214C" p-id="1548"></path><path d="M592 432a48 48 0 0 1 0-96 16 16 0 0 1 0 32 16 16 0 1 0 16 16 16 16 0 0 1 16-16c30.56 0 16 64-32 64zM680 624c-54.4 0-72-72-40-72a16 16 0 0 1 16 16 24 24 0 1 0 24-24 16 16 0 0 1 0-32 56 56 0 0 1 0 112z" fill="#35214C" p-id="1549"></path></svg>