<?xml version="1.0" standalone="no"?><!DOCTYPE svg PUBLIC "-//W3C//DTD SVG 1.1//EN" "http://www.w3.org/Graphics/SVG/1.1/DTD/svg11.dtd"><svg t="1584236106649" class="icon" viewBox="0 0 1050 1024" version="1.1" xmlns="http://www.w3.org/2000/svg" p-id="60513" xmlns:xlink="http://www.w3.org/1999/xlink" width="205.078125" height="200"><defs><style type="text/css"></style></defs><path d="M1018.825649 207.054252h-144.199929l-1.163226-1.323671h-106.014024a16.044498 16.044498 0 0 1 0-32.088997H922.558659a16.044498 16.044498 0 0 0 0-32.088997h-119.451291A454.019194 454.019194 0 0 0 103.045791 649.802186H41.434917a16.044498 16.044498 0 0 0 0 32.088997h73.604137a452.174077 452.174077 0 0 0 32.931333 64.177993h174.283364a16.044498 16.044498 0 0 1 0 32.088997h-152.422735a454.259861 454.259861 0 0 0 58.000861 64.177994H28.077872a16.044498 16.044498 0 0 0 0 32.088997h236.656352a16.044498 16.044498 0 0 0 2.005562 0 453.89886 453.89886 0 0 0 633.757687-634.880803H1018.825649a16.044498 16.044498 0 0 0 0-32.088997zM202.561792 632.915351H124.344863a16.044498 16.044498 0 0 1 0-32.088997h78.216929a16.044498 16.044498 0 0 1 0 32.088997z m375.361041-397.101336a16.044498 16.044498 0 0 1-16.044499 16.044499h-72.842022a16.044498 16.044498 0 0 1-16.044499-16.044499 16.044498 16.044498 0 0 1 16.044499-16.044498h72.842022a16.044498 16.044498 0 0 1 16.044499 16.044498z" fill="#77E065" opacity=".7" p-id="60514"></path><path d="M885.134866 1024a12.033374 12.033374 0 0 1 0-24.066748H1038.881272a12.033374 12.033374 0 0 1 0 24.066748zM829.259901 1024h-49.457167a12.033374 12.033374 0 0 1 0-24.066748h49.457167a12.033374 12.033374 0 0 1 0 24.066748zM529.468448 1024H106.014023a12.033374 12.033374 0 1 1 0-24.066748h635.281915a12.033374 12.033374 0 0 1 0 24.066748zM41.434917 1024H12.033374a12.033374 12.033374 0 0 1 0-24.066748h54.912296a12.033374 12.033374 0 1 1 0 24.066748z" fill="#1E1E1E" p-id="60515"></path><path d="M910.324729 49.737945l-18.932508-4.17157-14.15927 13.236712-1.885229-19.29351L858.380665 30.163657l17.729171-7.781582 3.690235-19.01273 12.875709 14.480159 19.213287-2.406674-9.787144 16.726389 8.222806 17.568726zM33.81378 830.623683l-2.166007-22.301853-19.614399-10.830036 20.496847-8.944808 4.251792-21.980963 14.881272 16.72639 22.22163-2.767676-11.311371 19.33362 9.626699 20.256179-21.860629-4.813349z m-12.715265-32.690666l14.319715 8.02225 1.60445 16.285165 12.033374-11.191037 16.044498 3.529789-6.939245-14.841161 8.262916-14.119158-16.245054 2.045673-10.870148-12.274041-3.088566 16.044498z" fill="#F7D854" p-id="60516"></path><path d="M106.014023 211.386267a19.734733 19.734733 0 1 1 19.694622-19.694622 19.734733 19.734733 0 0 1-19.694622 19.694622z m0-31.407106a11.712484 11.712484 0 1 0 11.672373 11.712484 11.712484 11.712484 0 0 0-11.672373-11.712484z" fill="#25D8EF" p-id="60517"></path><path d="M20.456735 511.458498a4.011125 4.011125 0 0 1 0-8.022249l38.105684-0.521446a4.011125 4.011125 0 0 1 0 8.022249l-38.105684 0.521446z" fill="#45EF37" p-id="60518"></path><path d="M39.750245 530.270673a4.011125 4.011125 0 0 1-4.011125-4.011125l-0.521446-38.105684a4.011125 4.011125 0 0 1 4.011125-4.011124 4.011125 4.011125 0 0 1 4.011124 4.011124l0.521446 38.105684a4.011125 4.011125 0 0 1-4.011124 4.011125z" fill="#45EF37" p-id="60519"></path><path d="M1018.825649 445.234831a22.903521 22.903521 0 1 1 22.903522-22.903522A22.903521 22.903521 0 0 1 1018.825649 445.234831z m0-41.795918a18.892397 18.892397 0 1 0 18.892397 18.892396 18.892397 18.892397 0 0 0-18.892397-18.892396z" fill="#F7802F" p-id="60520"></path><path d="M858.380665 916.702417m-27.075091 0a27.075091 27.075091 0 1 0 54.150182 0 27.075091 27.075091 0 1 0-54.150182 0Z" fill="#5886FF" p-id="60521"></path><path d="M160.444984 23.063966a4.011125 4.011125 0 0 0 4.011125-4.011124V4.011125a4.011125 4.011125 0 0 0-8.022249 0v15.041717a4.011125 4.011125 0 0 0 4.011124 4.011124zM148.973168 25.189863a4.011125 4.011125 0 0 0 5.695797-5.695797l-10.62948-10.589369a4.011125 4.011125 0 0 0-5.695797 5.655685zM152.101845 30.765326a4.011125 4.011125 0 0 0-4.011125-4.011125h-15.041717a4.011125 4.011125 0 0 0 0 8.022249h15.001606a4.011125 4.011125 0 0 0 4.051236-4.011124zM148.41161 36.541345l-10.62948 10.62948a4.011125 4.011125 0 0 0 5.695797 5.695797l10.62948-10.62948A4.011125 4.011125 0 0 0 148.41161 36.541345zM159.803204 39.108465a4.011125 4.011125 0 0 0-4.011124 4.011124v15.041718a4.011125 4.011125 0 0 0 8.022249 0v-15.041718a4.011125 4.011125 0 0 0-4.011125-4.011124zM171.275021 36.982569a4.011125 4.011125 0 1 0-5.695797 5.695797l10.62948 10.589369a4.011125 4.011125 0 0 0 5.655686 0 4.011125 4.011125 0 0 0 0-5.655686zM187.159074 27.35587h-15.001606a4.011125 4.011125 0 0 0 0 8.022249h15.001606a4.011125 4.011125 0 1 0 0-8.022249zM171.676133 25.631086l10.62948-10.62948A4.011125 4.011125 0 0 0 176.489483 9.305809L165.980336 20.055623a4.011125 4.011125 0 0 0 5.695797 5.575463z" fill="#FA7F80" p-id="60522"></path><path d="M999.131027 703.350699a4.011125 4.011125 0 0 0 4.011125-4.011124v-15.041718a4.011125 4.011125 0 0 0-8.022249 0v15.001606a4.011125 4.011125 0 0 0 4.011124 4.051236zM987.699322 705.476595a4.011125 4.011125 0 0 0 5.695797-5.695797l-10.669591-10.62948a4.011125 4.011125 0 0 0-5.695797 5.695797zM990.747777 711.052058a4.011125 4.011125 0 0 0-4.011125-4.011124h-15.001606a4.011125 4.011125 0 0 0 0 8.022249H986.736652a4.011125 4.011125 0 0 0 4.011125-4.011125zM987.258099 716.828078l-10.629481 10.589369a4.011125 4.011125 0 0 0 5.695797 5.695797l10.629481-10.62948a4.011125 4.011125 0 0 0 0-5.655686 4.011125 4.011125 0 0 0-5.695797 0zM998.529359 719.395198a4.011125 4.011125 0 0 0-4.011125 4.011124v15.001606a4.011125 4.011125 0 1 0 8.022249 0v-15.001606a4.011125 4.011125 0 0 0-4.011124-4.011124zM1010.001175 717.22919a4.011125 4.011125 0 1 0-5.695797 5.695797l10.62948 10.62948a4.011125 4.011125 0 1 0 5.655686-5.695796zM1025.885229 707.642603H1010.8034a4.011125 4.011125 0 0 0 0 8.022249h15.001606a4.011125 4.011125 0 1 0 0-8.022249zM1010.402288 705.95793l10.62948-10.62948a4.011125 4.011125 0 0 0-5.695797-5.695797l-10.62948 10.62948a4.011125 4.011125 0 0 0 5.695797 5.695797z" fill="#C39DF4" p-id="60523"></path><path d="M525.738102 165.499001l4.011124 174.243253L577.601943 366.857456l217.563398-54.270516-0.601668-0.441223 4.492459-2.326453c31.607662-17.007168 39.710134-50.780837 39.710134-50.780837s-40.111246-5.735908-71.357907 9.105253a87.322183 87.322183 0 0 0 30.123546-44.603706s-43.199812-6.177132-74.847585 10.830037a148.41161 148.41161 0 0 0-19.814956 12.755376c-0.481335-9.34592-1.484116-14.680716 4.49246-17.889616 31.647773-17.007168 39.750245-50.780837 39.750245-50.780837s-43.199812-6.177132-74.807474 10.830036l-5.77602 3.249011c22.101297-24.909084 20.055623-61.009205 20.055623-61.009205a124.344863 124.344863 0 0 0-36.501234 9.586588 83.71217 83.71217 0 0 0 16.044499-21.740296s-43.881703-11.552039-79.660935 0c-1.965451 0.64178-4.011125 1.323671-5.735908 2.005562C594.970112 94.822986 589.635317 62.573544 589.635317 62.573544s-38.266129 6.658467-57.960751 34.415449-18.290728 59.765757-5.936464 68.510008" fill="#3CAA30" p-id="60524"></path><path d="M525.136433 333.926123a12.033374 12.033374 0 0 1-12.033374-12.033374V89.006855a12.033374 12.033374 0 0 1 24.066748 0v232.885894a12.033374 12.033374 0 0 1-12.033374 12.033374z" fill="#1E1E1E" p-id="60525"></path><path d="M536.086803 354.944416a13.637824 13.637824 0 0 1-1.805006 0 12.033374 12.033374 0 0 1-10.108034-13.677935L557.54632 116.723726a12.033374 12.033374 0 1 1 23.785969 3.569901l-33.412668 224.38231a12.033374 12.033374 0 0 1-11.832818 10.268479z" fill="#1E1E1E" p-id="60526"></path><path d="M550.927964 348.406283a12.033374 12.033374 0 0 1-11.391594-16.044498l75.930589-221.173411a12.033374 12.033374 0 0 1 22.783188 7.821693l-75.930589 221.253633a12.033374 12.033374 0 0 1-11.391594 8.142583z" fill="#1E1E1E" p-id="60527"></path><path d="M550.927964 348.406283a12.033374 12.033374 0 0 1-6.538133-1.92534 12.033374 12.033374 0 0 1-3.569901-16.646167l109.704258-169.831016a12.033374 12.033374 0 1 1 20.055623 13.036155l-109.543813 169.871127a12.033374 12.033374 0 0 1-10.108034 5.495241z" fill="#1E1E1E" p-id="60528"></path><path d="M565.127345 348.406283a12.033374 12.033374 0 0 1-7.581025-21.218849L745.54773 168.467233a12.033374 12.033374 0 1 1 15.523052 18.411062l-188.201966 158.68009a12.033374 12.033374 0 0 1-7.741471 2.847898z" fill="#1E1E1E" p-id="60529"></path><path d="M573.871597 361.362216a12.033374 12.033374 0 0 1-4.893572-23.023856L779.080732 244.678601a12.033374 12.033374 0 0 1 9.787144 21.980963l-210.102707 93.659759a12.314153 12.314153 0 0 1-4.893572 1.042893z" fill="#1E1E1E" p-id="60530"></path><path d="M579.848173 365.614008a12.033374 12.033374 0 0 1-2.446786-23.826081L826.291668 290.445533a12.033374 12.033374 0 1 1 4.893572 23.545301l-248.930393 51.382506a12.23393 12.23393 0 0 1-2.406674 0.240668z" fill="#1E1E1E" p-id="60531"></path><path d="M321.852638 854.650319a55.915077 55.915077 0 0 1-25.871754-69.833679l161.768656-412.865056a56.155744 56.155744 0 0 1 78.337263-29.040542l86.399624 45.847155a56.155744 56.155744 0 0 1 20.055623 80.784049l-248.168279 367.017901a56.155744 56.155744 0 0 1-72.521133 18.090172z" fill="#F4724A" p-id="60532"></path><path d="M603.192918 383.503623l-19.293509-10.228367a56.155744 56.155744 0 0 1 13.196599 76.211367L348.96784 816.664969a55.874966 55.874966 0 0 1-59.5652 22.983744 55.03263 55.03263 0 0 0 13.236711 9.787144 56.155744 56.155744 0 0 0 72.561244-18.090172l248.16828-367.058012a56.155744 56.155744 0 0 0-20.175957-80.78405z" fill="#D87252" p-id="60533"></path><path d="M597.657566 532.958126a4.412237 4.412237 0 0 1-2.085785-0.561557l-47.33127-28.077873a4.011125 4.011125 0 1 1 4.011124-6.859023l47.371382 28.077873a4.011125 4.011125 0 0 1-2.045674 7.460691zM574.593599 567.293353a4.011125 4.011125 0 0 1-2.045673-0.561558l-47.371382-28.077872a4.011125 4.011125 0 0 1 4.011125-6.899134l47.371381 28.077872a4.011125 4.011125 0 0 1-2.085784 7.42058zM548.842179 605.399036a3.770457 3.770457 0 0 1-2.045673-0.561557l-47.371382-28.077872a4.011125 4.011125 0 0 1 4.011125-6.899135l47.371382 28.077873a4.011125 4.011125 0 0 1 1.403893 5.535352 4.011125 4.011125 0 0 1-3.369345 1.925339zM517.435074 652.008304a4.011125 4.011125 0 0 1-2.045674-0.561557l-47.371381-28.077872a4.011125 4.011125 0 0 1 4.011124-6.899135l47.371382 28.077873a4.011125 4.011125 0 0 1 1.363782 5.49524 4.011125 4.011125 0 0 1-3.329233 1.965451z" fill="#FC9C86" p-id="60534"></path><path d="M385.067962 490.720984a12.033374 12.033374 0 0 1-11.191038-16.445611l7.179913-18.330839a12.033374 12.033374 0 0 1 22.382076 8.784363l-7.179913 18.330839a12.033374 12.033374 0 0 1-11.191038 7.661248z" fill="#1E1E1E" p-id="60535"></path><path d="M322.735086 858.781778A68.189118 68.189118 0 0 1 259.399428 766.124799l104.570019-267.140898a12.033374 12.033374 0 1 1 22.422186 8.784363l-104.570018 266.940342a44.122371 44.122371 0 0 0 77.294371 40.632692l248.168279-367.017901a44.122371 44.122371 0 0 0-16.044498-63.41588l-86.199068-45.807043a43.881703 43.881703 0 0 0-61.49054 22.783188l-13.357045 34.13467a12.033374 12.033374 0 0 1-22.422187-8.784363L421.168083 352.978965a68.189118 68.189118 0 0 1 95.143876-35.297896l86.439735 45.847154a68.189118 68.189118 0 0 1 24.46786 98.152219L379.051275 828.858788a68.189118 68.189118 0 0 1-56.316189 29.92299z" fill="#1E1E1E" p-id="60536"></path><path d="M444.994164 527.984332a12.594931 12.594931 0 0 1-12.033374-8.824475 9.867367 9.867367 0 0 1 1.203337-8.022249 4.011125 4.011125 0 0 1 5.575463-1.042892 4.011125 4.011125 0 0 1 1.042893 5.575463 1.845117 1.845117 0 0 0 0 1.444005 4.291903 4.291903 0 0 0 1.724783 2.206118 4.372126 4.372126 0 0 0 2.687454 0.802225 1.805006 1.805006 0 0 0 1.28356-0.64178 4.011125 4.011125 0 0 1 6.7788 4.372126 9.747033 9.747033 0 0 1-7.179913 4.011125z" fill="#1E1E1E" p-id="60537"></path><path d="M659.549219 714.381292m-154.588743 0a154.588742 154.588742 0 1 0 309.177485 0 154.588742 154.588742 0 1 0-309.177485 0Z" fill="#E23B44" p-id="60538"></path><path d="M645.149281 553.775863a151.981511 151.981511 0 0 0-18.731952 1.203337 154.548631 154.548631 0 0 1 0 306.810921 152.021622 152.021622 0 0 0 18.731952 1.163226 154.588742 154.588742 0 0 0 0-309.177484z" fill="#B72A38" p-id="60539"></path><path d="M573.791375 669.296251a4.011125 4.011125 0 0 1-2.607231-7.059579 41.715696 41.715696 0 0 1 9.506365-6.096909 4.011125 4.011125 0 1 1 3.369344 7.260135 33.733558 33.733558 0 0 0-7.661247 4.933683 4.011125 4.011125 0 0 1-2.607231 0.96267zM557.54632 715.384073a4.011125 4.011125 0 0 1-4.011125-3.690235 66.30389 66.30389 0 0 1 5.976576-34.214892 4.011125 4.011125 0 1 1 7.220024 3.489678 58.28164 58.28164 0 0 0-5.174351 30.083434 4.011125 4.011125 0 0 1-3.690234 4.291904z" fill="#FFFFFF" p-id="60540"></path><path d="M530.872341 604.476478a12.033374 12.033374 0 0 1-7.460692-21.499628 169.068902 169.068902 0 0 1 20.857848-13.998825 12.033374 12.033374 0 1 1 12.033374 20.897959 142.996592 142.996592 0 0 0-17.849504 12.033374 12.033374 12.033374 0 0 1-7.581026 2.56712z" fill="#1E1E1E" p-id="60541"></path><path d="M626.417329 880.602295a166.662227 166.662227 0 0 1-126.109757-275.56426 12.033374 12.033374 0 0 1 18.210505 15.76372 142.074033 142.074033 0 1 0 59.364645-40.913471 12.033374 12.033374 0 1 1-8.02225-22.622743 166.622116 166.622116 0 1 1 56.717302 323.336754z" fill="#1E1E1E" p-id="60542"></path><path d="M709.247052 627.179443a86.961181 86.961181 0 0 0-39.068353 9.506365 84.474284 84.474284 0 0 1 20.055623-36.70179c15.041717-17.207725 32.810999-27.35587 44.12237-26.312977a10.669591 10.669591 0 0 0-2.767676-3.730346c-9.506365-8.343139-32.329664 2.206119-50.981393 23.50519-13.597712 15.523052-21.178738 32.449998-20.697403 43.721258-9.065142-6.538133-25.791531-10.62948-44.804262-9.9877-28.358651 0.922559-50.981394 12.033374-50.54017 24.588194a12.033374 12.033374 0 0 0 2.687453 6.899134c4.372126-10.589369 24.828861-19.173176 49.657723-20.055623a87.763406 87.763406 0 0 1 39.188687 6.698578 84.554507 84.554507 0 0 0-34.535782 22.823299c-19.774844 20.336402-28.438873 44.122371-19.373732 52.746289a12.033374 12.033374 0 0 0 6.738689 3.128677c-4.011125-10.669591 4.612793-31.005993 21.90074-48.855498a93.860316 93.860316 0 0 1 28.398763-20.577069 13.116377 13.116377 0 0 0 2.166007 4.011125 17.889616 17.889616 0 0 1 4.532571-6.09691l0.361001 0.361001c0-0.280779 0-0.601669 0.32089-0.882447a24.066748 24.066748 0 0 1 9.66681-0.762114l-0.361001-0.722002a89.247522 89.247522 0 0 1 36.741901 12.474597c19.774844 11.471816 33.212112 26.914646 34.335227 38.226018a10.789925 10.789925 0 0 0 3.088566-3.249011c6.337577-10.910259-8.423362-31.286772-32.971444-45.486153a100.719339 100.719339 0 0 0-26.794313-10.990481 108.741588 108.741588 0 0 1 20.657292-2.647343c22.823299-0.762114 42.397587 5.254573 49.336833 14.239493a10.669591 10.669591 0 0 0 0.882447-4.572682c-0.32089-12.755376-23.585413-22.22163-51.944064-21.299072z" fill="#3CAA30" p-id="60543"></path><path d="M652.970974 644.948725a4.011125 4.011125 0 0 1-0.441224-8.022249l26.353089-2.847899a4.011125 4.011125 0 0 1 4.412237 3.52979 4.011125 4.011125 0 0 1-3.569901 4.452348l-26.353088 2.807787z" fill="#1E1E1E" p-id="60544"></path><path d="M658.78651 590.434561m6.466565-0.638611l0.039917-0.003942q6.466565-0.63861 7.105176 5.827955l3.504474 35.486274q0.63861 6.466565-5.827955 7.105175l-0.039917 0.003942q-6.466565 0.63861-7.105176-5.827954l-3.504473-35.486274q-0.63861-6.466565 5.827954-7.105176Z" fill="#3CAA30" p-id="60545"></path><path d="M664.121901 642.742606a10.30859 10.30859 0 0 1-6.658467-2.366563 10.62948 10.62948 0 0 1-3.810569-7.099691l-3.489678-35.458341a10.509146 10.509146 0 0 1 17.167613-9.145364 10.228368 10.228368 0 0 1 3.770457 7.09969l3.52979 35.418231a10.30859 10.30859 0 0 1-2.366563 7.701359 10.469035 10.469035 0 0 1-7.099691 3.810568z m-3.489679-48.454385h-0.240667a2.56712 2.56712 0 0 0-2.24623 2.767676l3.489678 35.41823a2.446786 2.446786 0 0 0 0.922559 1.684673 2.326452 2.326452 0 0 0 1.805006 0.561557 2.527009 2.527009 0 0 0 2.24623-2.727564l-3.52979-35.418231a2.406675 2.406675 0 0 0-0.882447-1.724783 2.527009 2.527009 0 0 0-1.564339-0.561558zM630.428454 756.859101c-10.870148 0-19.734733-7.661248-19.734733-17.047279a4.011125 4.011125 0 0 1 8.022249 0c0 4.973795 5.254573 9.02503 11.712484 9.02503s11.712484-4.011125 11.712484-9.02503a4.011125 4.011125 0 0 1 8.022249 0c0 9.386032-8.864585 17.04728-19.734733 17.047279zM695.288339 756.859101c-10.870148 0-19.734733-7.661248-19.734733-17.047279a4.011125 4.011125 0 0 1 8.022249 0c0 4.973795 5.254573 9.02503 11.712484 9.02503s11.672373-4.011125 11.672372-9.02503a4.011125 4.011125 0 0 1 8.02225 0c0 9.386032-8.824474 17.04728-19.694622 17.047279zM652.970974 793.280113a4.011125 4.011125 0 0 1 0-8.022249l19.253398-0.64178a4.011125 4.011125 0 0 1 4.011125 4.011124 4.011125 4.011125 0 0 1-4.011125 4.011125l-19.253398 0.681891z" fill="#1E1E1E" p-id="60546"></path><path d="M439.699479 485.065298m-6.698578 0a6.698578 6.698578 0 1 0 13.397156 0 6.698578 6.698578 0 1 0-13.397156 0Z" fill="#1E1E1E" p-id="60547"></path><path d="M473.312703 498.422343m-6.698578 0a6.698578 6.698578 0 1 0 13.397156 0 6.698578 6.698578 0 1 0-13.397156 0Z" fill="#1E1E1E" p-id="60548"></path></svg>