<?xml version="1.0" standalone="no"?><!DOCTYPE svg PUBLIC "-//W3C//DTD SVG 1.1//EN" "http://www.w3.org/Graphics/SVG/1.1/DTD/svg11.dtd"><svg t="1584235940166" class="icon" viewBox="0 0 1024 1024" version="1.1" xmlns="http://www.w3.org/2000/svg" p-id="55355" xmlns:xlink="http://www.w3.org/1999/xlink" width="200" height="200"><defs><style type="text/css"></style></defs><path d="M757.504 640.768c4.608-19.072 7.04-38.912 7.04-59.264 0-140.032-113.408-253.44-253.44-253.44s-253.44 113.408-253.44 253.44c0 20.352 2.432 40.192 7.04 59.264h492.8z" fill="#FEB14E" p-id="55356"></path><path d="M953.344 726.144H68.736c-11.648 0-21.12-9.472-21.12-21.12v-42.112c0-11.648 9.472-21.12 21.12-21.12h151.04c-2.048-13.824-3.584-27.776-3.584-42.112 0-162.816 131.968-294.912 294.912-294.912 162.816 0 294.912 131.968 294.912 294.912 0 14.336-1.536 28.416-3.584 42.112h151.04c11.648 0 21.12 9.472 21.12 21.12v42.112c-0.128 11.648-9.6 21.12-21.248 21.12zM511.104 389.12c-116.352 0-210.56 94.336-210.56 210.56 0 14.592 1.92 28.544 4.864 42.112H716.8c2.944-13.696 4.864-27.648 4.864-42.112 0-116.224-94.336-210.56-210.56-210.56z m282.88-12.8c-8.192 8.192-21.504 8.192-29.824 0l-29.824-29.824c-8.192-8.192-8.192-21.504 0-29.824l89.344-89.344c8.192-8.192 21.504-8.192 29.824 0l29.824 29.824c8.192 8.192 8.192 21.504 0 29.824L793.984 376.32z m-261.888-113.536h-42.112c-11.648 0-21.12-9.472-21.12-21.12V115.328c0-11.648 9.472-21.12 21.12-21.12h42.112c11.648 0 21.12 9.472 21.12 21.12v126.336c0 11.648-9.472 21.12-21.12 21.12zM257.92 376.32c-8.192 8.192-21.504 8.192-29.824 0l-89.344-89.344c-8.192-8.192-8.192-21.504 0-29.824l29.824-29.824c8.192-8.192 21.504-8.192 29.824 0l89.344 89.344c8.192 8.192 8.192 21.504 0 29.824L257.92 376.32z m-62.848 434.048H826.88c11.648 0 21.12 9.472 21.12 20.992v42.112c0 11.648-9.472 21.12-21.12 21.12H195.072c-11.648 0-21.12-9.472-21.12-21.12v-42.112c0.128-11.52 9.6-20.992 21.12-20.992z m0 0" fill="#242F44" p-id="55357"></path></svg>