<?xml version="1.0" standalone="no"?><!DOCTYPE svg PUBLIC "-//W3C//DTD SVG 1.1//EN" "http://www.w3.org/Graphics/SVG/1.1/DTD/svg11.dtd"><svg t="1584264688702" class="icon" viewBox="0 0 1024 1024" version="1.1" xmlns="http://www.w3.org/2000/svg" p-id="14349" xmlns:xlink="http://www.w3.org/1999/xlink" width="200" height="200"><defs><style type="text/css"></style></defs><path d="M828.406 90.125H195.593c-58.249 0-105.469 47.22-105.469 105.469v105.469h52.734c29.124 0 52.734 23.61 52.734 52.734s-23.61 52.734-52.734 52.734H90.124v52.734h52.734c29.124 0 52.734 23.61 52.734 52.734s-23.61 52.734-52.734 52.734H90.124v52.734h52.734c29.124 0 52.734 23.61 52.734 52.734s-23.61 52.734-52.734 52.734H90.124v105.469c0 58.249 47.22 105.469 105.469 105.469h632.813c58.249 0 105.469-47.22 105.469-105.469V195.591c0-58.249-47.22-105.469-105.469-105.469z m-181.248 221.01h63.123l-40.447 118.758h-63.07l40.395-118.758zM445.08 720.406l-37.916-70.717-37.916 73.248h-65.654l75.832-136.372V392.028h55.582v191.953l10.125 20.25V356.643h-75.885v239.942l-58.114 22.781V308.603h194.537v280.441l-55.529 20.197 60.592 111.164H445.08z m202.078-5.062l-40.394-186.943h60.644l40.395 186.996h-60.645z m48.041-202.078H591.576v156.622h30.323l-22.676 50.519h-68.238V513.266h-20.25v-53.05h22.781V301.063h58.114v156.622h128.83l-25.26 55.582z" fill="#888888" p-id="14350"></path></svg>