<?xml version="1.0" standalone="no"?><!DOCTYPE svg PUBLIC "-//W3C//DTD SVG 1.1//EN" "http://www.w3.org/Graphics/SVG/1.1/DTD/svg11.dtd"><svg t="1584110285762" class="icon" viewBox="0 0 1024 1024" version="1.1" xmlns="http://www.w3.org/2000/svg" p-id="13542" xmlns:xlink="http://www.w3.org/1999/xlink" width="200" height="200"><defs><style type="text/css"></style></defs><path d="M360.727273 477.090909c6.981818-6.981818 6.981818-18.618182 0-25.6s-18.618182-6.981818-25.6 0l-100.072728 100.072727c-6.981818 6.981818-11.636364 18.618182-11.636363 27.927273s4.654545 20.945455 11.636363 27.927273l100.072728 100.072727c2.327273 2.327273 6.981818 4.654545 11.636363 4.654546s9.309091-2.327273 11.636364-4.654546c6.981818-6.981818 6.981818-18.618182 0-25.6L258.327273 581.818182c-2.327273-2.327273-2.327273-6.981818 0-9.309091l102.4-95.418182zM786.618182 553.890909l-100.072727-100.072727c-6.981818-6.981818-18.618182-6.981818-25.6 0s-6.981818 18.618182 0 25.6l100.072727 100.072727c2.327273 2.327273 2.327273 6.981818 0 9.309091l-100.072727 100.072727c-6.981818 6.981818-6.981818 18.618182 0 25.6 2.327273 2.327273 6.981818 4.654545 11.636363 4.654546s9.309091-2.327273 11.636364-4.654546l100.072727-100.072727c6.981818-6.981818 11.636364-18.618182 11.636364-27.927273s0-25.6-9.309091-32.581818zM588.8 402.618182c-9.309091-4.654545-18.618182 0-23.272727 9.309091l-139.636364 325.818182c-4.654545 9.309091 0 18.618182 9.309091 23.272727 2.327273 0 4.654545 2.327273 6.981818 2.327273 6.981818 0 13.963636-4.654545 16.290909-11.636364l139.636364-325.818182c4.654545-9.309091 0-18.618182-9.309091-23.272727z" fill="#26a959" p-id="13543"></path><path d="M884.363636 111.709091H139.636364C72.145455 111.709091 18.618182 167.563636 18.618182 232.727273v121.018182h989.090909V232.727273c-2.327273-67.490909-55.854545-121.018182-123.345455-121.018182z m65.163637 186.181818H74.472727V232.727273c0-34.909091 27.927273-65.163636 65.163637-65.163637h744.727272c34.909091 0 65.163636 27.927273 65.163637 65.163637v65.163636zM949.527273 791.272727c0 34.909091-27.927273 65.163636-65.163637 65.163637H139.636364c-34.909091 0-65.163636-27.927273-65.163637-65.163637V418.909091H18.618182v372.363636c0 67.490909 55.854545 121.018182 121.018182 121.018182h744.727272c67.490909 0 121.018182-55.854545 121.018182-121.018182V418.909091h-58.181818v372.363636z" fill="#26a959" p-id="13544"></path></svg>