<?xml version="1.0" standalone="no"?><!DOCTYPE svg PUBLIC "-//W3C//DTD SVG 1.1//EN" "http://www.w3.org/Graphics/SVG/1.1/DTD/svg11.dtd"><svg t="1584239190352" class="icon" viewBox="0 0 1024 1024" version="1.1" xmlns="http://www.w3.org/2000/svg" p-id="2530" xmlns:xlink="http://www.w3.org/1999/xlink" width="200" height="200"><defs><style type="text/css"></style></defs><path d="M721.92 361.472c21.504-19.456 53.248-54.272 57.344-58.368 17.408-18.432 16.384-48.128-3.072-65.536-18.432-17.408-48.128-16.384-65.536 3.072-10.24 11.264-39.936 43.008-54.272 55.296l-1.024 1.024c-77.824-60.416-199.68-113.664-288.768-16.384l-2.048 2.048C454.656 317.44 675.84 427.008 734.208 662.528c5.12-3.072 11.264-7.168 17.408-12.288 93.184-79.872 33.792-209.92-29.696-288.768z" fill="#888888" p-id="2531"></path><path d="M348.16 321.536c-1.024 10.24 1.024 17.408-3.072 24.576-96.256 119.808-166.912 253.952-84.992 363.52-7.168 7.168-12.288 17.408-12.288 29.696 0 22.528 18.432 40.96 40.96 40.96 12.288 0 23.552-6.144 30.72-14.336 111.616 72.704 245.76 12.288 360.448-86.016 6.144 0 11.264-1.024 16.384-2.048-53.248-219.136-266.24-323.584-348.16-356.352z m-60.416 203.776c4.096-7.168 13.312-11.264 20.48-7.168 7.168 4.096 11.264 13.312 7.168 20.48-5.12 10.24-15.36 40.96-9.216 61.44 2.048 8.192-2.048 16.384-10.24 19.456-1.024 0-3.072 1.024-4.096 1.024-6.144 0-12.288-4.096-14.336-11.264-11.264-36.864 10.24-82.944 10.24-83.968z" fill="#888888" p-id="2532"></path></svg>