<?xml version="1.0" standalone="no"?><!DOCTYPE svg PUBLIC "-//W3C//DTD SVG 1.1//EN" "http://www.w3.org/Graphics/SVG/1.1/DTD/svg11.dtd"><svg t="1584239298803" class="icon" viewBox="0 0 1024 1024" version="1.1" xmlns="http://www.w3.org/2000/svg" p-id="4324" xmlns:xlink="http://www.w3.org/1999/xlink" width="200" height="200"><defs><style type="text/css"></style></defs><path d="M901.5 786c-11-6.2-21.7-13.1-33.1-18.5-61.1-28.6-121.8-57.9-183.8-84.6-22.9-9.9-33.2-27-36.8-48.3-2.5-15-5.6-25.3-21.9-26.1-5.4-34.1-6-25.2 8.2-103.1 14.1-77.9 14.4-40 40.9-98.9 15.3-46.9 14.1-52.8-5-46.6-3.2-3.4-2.3-11.3-2-17 1.6-32.6 3.1-65.2 5.8-97.7 2.1-24.7-6.1-44.7-22.5-62.8-5.6-6.1-19.5-22.8-19.5-22.8l-5.1-47.2c-25.1 26.9-105.3 29.2-105.3 29.2S449.1 148.8 417 158c-46.3 13.3-66.7 43.3-64.4 90.7 1.5 31.1 7.6 79.5 8.8 110.6 0.2 6.3-7.1-7.7-14.4-2.3-7.4 5.4 2.5 40.5 13.6 59.9 18.6 38.2 19.4 19.3 29.8 93.9 18.7 101.4 15.3 63.5 9.8 97.6-16.1 0.9-19.4 11.2-21.9 26.2-3.5 21.3-13.8 38.2-36.6 48.3-70.4 31.3-139.8 65-209.2 98.3-22.1 10.7-37.7 26.8-34 54.2H513l-61.6-103.8-59.2-105.2 96.6 22.8 24.5 7.1 120.3-29.8-59.1 105.3L513 835.7h414.4c3.1-22.8-6.6-38.8-25.9-49.7z" p-id="4325" fill="#888888"></path><path d="M483.6 683.7L513 834.4l29.4-150.7-29.4-27.3z" p-id="4326" fill="#888888"></path></svg>