<?xml version="1.0" standalone="no"?><!DOCTYPE svg PUBLIC "-//W3C//DTD SVG 1.1//EN" "http://www.w3.org/Graphics/SVG/1.1/DTD/svg11.dtd"><svg t="1584196297626" class="icon" viewBox="0 0 1024 1024" version="1.1" xmlns="http://www.w3.org/2000/svg" p-id="46979" xmlns:xlink="http://www.w3.org/1999/xlink" width="200" height="200"><defs><style type="text/css"></style></defs><path d="M162.800233 346.397854a30.202804 30.202804 0 0 0 30.151605-30.151605c0-16.650198-13.527006-30.197685-30.151605-30.197684a30.213044 30.213044 0 0 0-30.177205 30.197684 30.207924 30.207924 0 0 0 30.177205 30.151605z m0-44.948368c8.15102 0 14.801883 6.650863 14.801883 14.801883s-6.650863 14.750683-14.801883 14.750683c-8.17662 0-14.827483-6.599664-14.827483-14.750683s6.650863-14.801883 14.827483-14.801883zM242.072995 346.397854a30.207924 30.207924 0 0 0 30.177204-30.151605 30.213044 30.213044 0 0 0-30.177204-30.197684c-16.624598 0-30.151605 13.547486-30.151605 30.197684 0.00512 16.604118 13.527006 30.151605 30.151605 30.151605z m0-44.948368c8.17662 0 14.827483 6.650863 14.827483 14.801883s-6.650863 14.750683-14.827483 14.750683c-8.15102 0-14.801883-6.599664-14.801883-14.750683s6.655983-14.801883 14.801883-14.801883z" p-id="46980"></path><path d="M94.724883 382.698563V729.598176A7.679981 7.679981 0 0 0 102.399744 737.298637a7.679981 7.679981 0 0 0 7.674861-7.700461V389.549106h803.84823V729.598176c0 4.249589 3.425271 7.700461 7.674861 7.700461s7.674861-3.450871 7.674861-7.700461V304.547079c0-32.450479-26.398654-58.900333-58.874733-58.900333H153.599616c-32.476079 0-58.874733 26.449854-58.874733 58.900333v76.451649c-0.04096 0.317439-0.348159 0.517119-0.348159 0.849917s0.307199 0.532479 0.348159 0.849918zM153.599616 261.047667h716.798208c24.0025 0 43.525011 19.502031 43.525011 43.499412v69.601106H110.074605V304.547079c0-23.99738 19.527631-43.499411 43.525011-43.499412z" p-id="46981"></path><path d="M405.021707 323.94671h200.07374c4.249589 0 7.674861-3.450871 7.674861-7.700461s-3.425271-7.700461-7.674861-7.70046H405.021707c-4.249589 0-7.674861 3.450871-7.67486 7.70046s3.425271 7.700461 7.67486 7.700461z" p-id="46982"></path><path d="M375.576661 501.600026a37.191587 30.781363 90 1 0 61.562726 0 37.191587 30.781363 90 1 0-61.562726 0Z" p-id="46983"></path><path d="M586.863173 501.600026a37.191587 30.781363 90 1 0 61.562726 0 37.191587 30.781363 90 1 0-61.562726 0Z" p-id="46984"></path><path d="M393.599016 680.999258c2.273274 0 4.526069-1.049597 6.051825-2.949113 27.222972-34.897833 68.19823-54.850423 112.373479-54.850423 44.12405 0 85.073707 19.94747 112.322279 54.748023 2.652153 3.302392 7.500781 3.94751 10.772453 1.300477a7.705581 7.705581 0 0 0 1.326077-10.798053c-30.197685-38.548384-75.550531-60.651368-124.425929-60.651368-48.952198 0-94.325524 22.149065-124.477129 60.748648a7.679981 7.679981 0 0 0 1.326077 10.798053c1.407996 1.100797 3.082232 1.653756 4.730868 1.653756zM7.674861 217.297377h23.7977v23.75162c0 4.249589 3.425271 7.700461 7.674861 7.700461s7.674861-3.450871 7.674861-7.700461v-23.75162h23.7977c4.249589 0 7.674861-3.450871 7.674861-7.700461s-3.425271-7.700461-7.674861-7.700461H46.827403v-23.75162c0-4.249589-3.425271-7.700461-7.674861-7.700461s-7.674861 3.450871-7.674861 7.700461v23.75162H7.674861C3.425271 201.901575 0 205.347327 0 209.602036s3.425271 7.695341 7.674861 7.695341zM940.597969 53.247867h30.197684v30.197684c0 4.249589 3.425271 7.700461 7.674861 7.700461s7.674861-3.450871 7.674861-7.700461V53.247867h30.177204A7.679981 7.679981 0 0 0 1023.99744 45.547406a7.679981 7.679981 0 0 0-7.674861-7.700461h-30.177204V7.700461c0-4.249589-3.425271-7.700461-7.674861-7.700461s-7.674861 3.450871-7.674861 7.700461v30.151604h-30.197684a7.679981 7.679981 0 0 0-7.674861 7.700461 7.679981 7.679981 0 0 0 7.674861 7.695341z" p-id="46985"></path><path d="M239.251882 79.80524m-15.805401 0a15.8054 15.8054 0 1 0 31.610801 0 15.8054 15.8054 0 1 0-31.610801 0Z" p-id="46986"></path><path d="M1003.384372 333.725886m-20.613069 0a20.613068 20.613068 0 1 0 41.226137 0 20.613068 20.613068 0 1 0-41.226137 0Z" p-id="46987"></path><path d="M1006.169645 747.425971m-17.827796 0a17.827795 17.827795 0 1 0 35.655591 0 17.827795 17.827795 0 1 0-35.655591 0Z" p-id="46988"></path><path d="M772.959348 850.813873m-20.561869 0a20.561869 20.561869 0 1 0 41.123737 0 20.561869 20.561869 0 1 0-41.123737 0Z" p-id="46989"></path><path d="M964.16015 989.913685m-12.958688 0a12.958688 12.958688 0 1 0 25.917375 0 12.958688 12.958688 0 1 0-25.917375 0Z" p-id="46990"></path><path d="M179.604031 788.611148m-12.958688 0a12.958688 12.958688 0 1 0 25.917376 0 12.958688 12.958688 0 1 0-25.917376 0Z" p-id="46991"></path><path d="M996.800068 830.252004m-12.958688 0a12.958688 12.958688 0 1 0 25.917376 0 12.958688 12.958688 0 1 0-25.917376 0Z" p-id="46992"></path><path d="M17.638356 773.532786m-17.638356 0a17.638356 17.638356 0 1 0 35.276712 0 17.638356 17.638356 0 1 0-35.276712 0Z" p-id="46993"></path><path d="M76.13933 903.80062m-24.21754 0a24.217539 24.217539 0 1 0 48.435079 0 24.217539 24.217539 0 1 0-48.435079 0Z" p-id="46994"></path><path d="M179.604031 1009.057317m-14.940123 0a14.940123 14.940123 0 1 0 29.880246 0 14.940123 14.940123 0 1 0-29.880246 0Z" p-id="46995"></path><path d="M1018.467854 854.648743c-25.052097-7.352302-45.101967-11.601891-73.497416-11.601891a286.944563 286.944563 0 0 0-99.522312 17.699796c-34.104235 12.620768-64.706398 31.784881-91.75017 55.96658-35.665831-30.868403-80.660278-48.266119-128.02016-48.266119-46.484364 0-90.874653 16.829398-126.238405 46.699403-28.15993-24.222659-60.738408-36.04983-102.307584-36.04983-27.714491 0-54.671223 7.260142-78.740283 20.413389-54.911863-67.076952-135.142062-105.666296-222.202324-105.666296-35.92695 0-61.526886 6.799343-91.151133 17.750996-3.99871 1.448956-6.026225 5.898225-4.551668 9.850855s5.826545 6.200304 9.850855 4.551669c28.774328-10.598374 52.04979-16.747478 85.851946-16.747478 83.558191 0 160.532079 37.416866 212.556268 102.553343 0.18944 0.599039-0.06144 1.239037 0.286719 1.797116 0.773118 1.264637 2.088955 1.797116 3.322872 2.416634 0.18432 0.240639 0.399359 0.440319 0.583679 0.680958 1.500156 2.001915 3.799031 3.051512 6.097904 3.051513 1.623036 0 3.276792-0.547839 4.648949-1.597436 1.679356-1.269757 2.682873-3.118072 2.949112-5.058548 21.631946-11.663331 45.629326-18.590674 70.497104-18.590673 39.92566 0 70.747983 11.402211 97.023758 35.85015 0.849918 0.808958 1.976315 0.870398 3.015672 1.213437 0.701438 0.230399 1.254397 0.783358 1.991675 0.798718 0.0768 0.00512 0.13824 0.08704 0.22016 0.08704 0.762878 0 1.356797-0.686078 2.088954-0.911358 1.049597-0.317439 2.191355-0.302079 3.061753-1.085437a180.448829 180.448829 0 0 1 121.149137-46.602124c45.224847 0 88.314659 16.870358 121.727695 47.267722 0.17408 0.235519 0.08704 0.563199 0.29184 0.783358 1.525756 1.597436 3.548151 2.452474 5.601266 2.452474 0.14336 0 0.261119-0.1536 0.404479-0.163839 0.14336 0.01024 0.255999 0.16384 0.399359 0.163839 2.047995 0 4.10111-0.849918 5.626866-2.452474 0.19968-0.220159 0.11776-0.542719 0.286719-0.773118 26.480574-24.524739 56.939378-43.437971 90.756893-55.97682a271.9942 271.9942 0 0 1 94.197525-16.701398c26.700733 0 44.922768 3.85023 69.201747 10.900453 4.223989 1.551356 8.350699-1.151997 9.523176-5.201907s-1.157117-8.355819-5.232627-9.502697zM310.225144 939.84533c-9.692136 0-19.189712 2.370554-28.231609 5.923826-0.16384-0.220159-0.08192-0.517119-0.266239-0.727039a128.11232 128.11232 0 0 0-93.501207-40.698778c-19.374032 0-37.974945 4.249589-55.249781 12.549089a7.628781 7.628781 0 0 0-3.599351 10.199014 7.505901 7.505901 0 0 0 10.250214 3.599351c42.977173-20.449229 98.124555-10.347494 130.851513 24.852418 0.06144 0.06144 0.15872 0.03584 0.220159 0.09728 0.02048 1.151997-0.271359 2.314234 0.302079 3.404791a7.644141 7.644141 0 0 0 10.347495 3.251192c26.874813-14.100445 62.049125-5.601266 79.574841 19.097553 1.500156 2.099195 3.85023 3.251192 6.251504 3.251191 1.551356 0 3.097592-0.501759 4.449269-1.448956a7.659501 7.659501 0 0 0 1.802235-10.700773 77.624126 77.624126 0 0 0-63.201122-32.650159z" p-id="46996"></path><path d="M890.099535 893.698886a165.104227 165.104227 0 0 0-122.797773 54.947702 7.633901 7.633901 0 0 0 0.599038 10.798053c1.474556 1.351677 3.302392 2.001915 5.125107 2.001915 2.099195 0 4.19839-0.901118 5.724146-2.600953a149.810825 149.810825 0 0 1 111.349482-49.750916 7.679981 7.679981 0 0 0 7.674861-7.70046 7.679981 7.679981 0 0 0-7.674861-7.695341z" p-id="46997"></path></svg>