<?xml version="1.0" standalone="no"?><!DOCTYPE svg PUBLIC "-//W3C//DTD SVG 1.1//EN" "http://www.w3.org/Graphics/SVG/1.1/DTD/svg11.dtd"><svg t="1584110324698" class="icon" viewBox="0 0 1024 1024" version="1.1" xmlns="http://www.w3.org/2000/svg" p-id="15051" xmlns:xlink="http://www.w3.org/1999/xlink" width="200" height="200"><defs><style type="text/css"></style></defs><path d="M12.16 635.104c0 40.416 27.104 73.216 60.544 73.216s60.544-32.8 60.544-73.216c0-40.448-27.104-73.216-60.544-73.216S12.16 594.656 12.16 635.104z m486.464-279.488h26.752c66.88-53.504 149.248-78.848 223.872-90.112A237.664 237.664 0 0 0 512 38.816a237.664 237.664 0 0 0-237.248 226.688c74.624 11.264 156.992 36.608 223.872 90.112z m392.128 279.488c0 40.416 27.104 73.216 60.544 73.216s60.544-32.8 60.544-73.216c0-40.448-27.104-73.216-60.544-73.216s-60.544 32.768-60.544 73.216z m60.544-116.864V311.968s-260.48-39.424-425.92 92.224h-26.752c-165.44-131.648-425.92-92.224-425.92-92.224v206.272c57.728 0 104.896 52.096 104.896 116.864s-47.168 116.864-104.896 116.864v118.976s260.48-39.424 425.92 92.224h26.752c165.44-131.648 425.92-92.224 425.92-92.224v-118.976c-57.728 0-104.896-52.096-104.896-116.864s47.168-116.864 104.896-116.864z" fill="#FD7F27" p-id="15052"></path></svg>