<?xml version="1.0" standalone="no"?><!DOCTYPE svg PUBLIC "-//W3C//DTD SVG 1.1//EN" "http://www.w3.org/Graphics/SVG/1.1/DTD/svg11.dtd"><svg t="1584267635811" class="icon" viewBox="0 0 1024 1024" version="1.1" xmlns="http://www.w3.org/2000/svg" p-id="18688" xmlns:xlink="http://www.w3.org/1999/xlink" width="200" height="200"><defs><style type="text/css"></style></defs><path d="M406.942 66.645c-98.244-11.807-209.067 19.208-274.413 96.701C117.445 181.234 105.574 201 96.93 222.73c-2.198 5.526 0.831 11.738 5.454 15.143 0.315 0.464 0.644 0.921 1.002 1.364l78.199 96.762 106.534 131.822 4.173 5.163-10.126 92.4-21.076 192.317-15.494 141.383-1.159 10.573c-0.229 2.092 0.21 4.086 1.089 5.89 1.469 19.474 22.379 28.937 38.604 34.398 26.203 8.82 55.161 10.982 82.626 11.055 27.161 0.072 55.403-2.463 81.415-10.661 16.936-5.338 39.305-15.438 39.896-36.134 0.017-0.583-0.02-1.155-0.081-1.721a10.33 10.33 0 0 0 0.081-2.827l-10.595-96.678-21.076-192.317-15.494-141.383-0.688-6.282 73.004-90.097 108.394-133.774 10.57-13.044c3.846-3.543 6.119-9.082 4.12-14.048C598.913 129.186 502.3 78.105 406.942 66.645z m48.065 798.553l4.872 44.459c0.071 0.652 0.184 1.291 0.315 1.923-0.095 0.456-0.168 0.918-0.221 1.387-0.362 0.466-0.787 0.993-1.094 1.293-0.194 0.189-0.398 0.367-0.601 0.546-0.353 0.274-0.836 0.648-1.111 0.835-2.783 1.894-5.818 3.405-8.886 4.785 0.823-0.407-3.359 1.287-4.038 1.532-2.412 0.867-4.864 1.62-7.322 2.346-23.239 6.859-45.684 8.444-70.167 8.509-24.111 0.064-45.976-1.812-68.874-8.14a126.264 126.264 0 0 1-12.031-4.003c0.409 0.121-3.049-1.369-3.647-1.663-1.752-0.862-3.444-1.838-5.099-2.871a44.186 44.186 0 0 1-1.454-0.968 22.477 22.477 0 0 1-1.662-1.559c-0.11-0.163-0.272-0.397-0.45-0.66a14.878 14.878 0 0 0-0.877-3.6l10.561-96.368 21.076-192.317 6.713-61.26h110.485l14.277 130.28 19.235 175.514z m79.791-553.462L426.404 445.51l-10.04 12.391c-3.454 4.263-5.067 8.437-4.499 13.624l4.633 42.274 1.908 17.414H314.1l5.691-51.934 1.119-10.211c0.616-5.624-4.119-10.367-7.473-14.516l-37.513-46.417-118.367-146.464-30.64-37.913a210.913 210.913 0 0 1 2.43-5.051c2.443-4.906 5.152-9.675 8.011-14.349 2.668-4.361 5.549-8.589 8.545-12.73a210.733 210.733 0 0 1 2.303-3.101l0.225-0.299c0.137-0.168 0.364-0.45 0.743-0.93 1.884-2.378 3.841-4.698 5.825-6.993 15.218-17.609 31.018-30.604 49.253-42.358 40.893-26.36 88.971-40.805 136.636-44.493 13.477-1.043 27.017-1.195 40.521-0.657 13.327 0.531 25.608 1.819 37.363 3.739 12.644 2.066 25.148 4.952 37.456 8.498 5.765 1.661 11.469 3.526 17.128 5.516 5.199 1.828 12.876 4.853 15.832 6.126 10.988 4.729 21.649 10.204 31.955 16.272 4.824 2.84 9.537 5.866 14.174 9.002a257.5 257.5 0 0 1 10.094 7.227c0.525 0.401 0.854 0.651 1.004 0.764 0.516 0.404 1.031 0.808 1.544 1.217 8.752 6.935 16.972 14.531 24.652 22.633 8.39 8.852 12.762 14.397 18.931 23.442 3.586 5.257 6.867 10.718 9.918 16.301 1.613 2.953 3.117 5.964 4.567 9 0.131 0.274 0.25 0.554 0.378 0.829l-71.607 88.373zM895.176 448.535c-5.967-1.936-12.761-1.781-19.179-1.68v-112.88-188.426-54.37c0-13.492-19.79-19.958-26.264-7.114-1.06 2.104-2.387 4.089-3.714 6.03a86.96 86.96 0 0 1-1.872 2.603c-0.351 0.436-0.703 0.872-1.06 1.304-2.368 2.87-4.923 5.581-7.575 8.189-2.61 2.567-5.381 4.964-8.233 7.258-0.128 0.079-1.585 1.191-1.866 1.395-0.953 0.693-1.927 1.357-2.9 2.02-2.392 1.631-4.868 3.134-7.372 4.584-10.605 6.141-19.102 9.16-31.88 12.134-22.294 5.189-42.741 14.508-59.05 30.919-11.219 11.289-19.353 25.123-24.809 39.993-4.216 11.489-3.945 22.009-3.945 34.064v212.334h-10.863c-23.977 0-42.83 20.812-42.83 44.335V903.603c0 8.174 2.14 15.957 6.048 23.107 6.991 12.788 19.99 19.693 33.995 21.406 5.414 0.662 11.173 0.13 16.602 0.13H883.286c24.392 0 42.53-20.593 43.049-44.254v-102.3-193.861-115.865c-0.002-19.926-12.146-37.263-31.159-43.431zM723.644 317.303v-82.744-16.663c0.836-3.768 2.017-7.459 3.37-11.07 0.196-0.522 0.402-1.04 0.608-1.559a103.724 103.724 0 0 1 1.599-3.433c1.435-2.948 3.055-5.802 4.783-8.588a95.047 95.047 0 0 1 2.977-4.463c0.282-0.402 0.579-0.794 0.871-1.189 0.307-0.399 0.746-0.973 0.939-1.209 2.791-3.428 5.881-6.601 9.137-9.586 0.797-0.731 1.62-1.432 2.442-2.134 0.214-0.182 1.09-0.885 1.515-1.234a99.72 99.72 0 0 1 4.746-3.316c4.141-2.726 8.542-5.035 13.048-7.092l0.462-0.212c0.222-0.083 0.564-0.214 1.067-0.414 1.274-0.504 2.567-0.959 3.859-1.413 2.7-0.95 5.453-1.741 8.215-2.484 6.565-1.764 13.201-3.022 19.688-5.105 16.303-5.234 31.648-13.528 44.838-24.444v317.941H723.644V317.303z m174.501 175.675v411.017c-0.004 0.179-0.278 3.084-0.16 2.775-0.214 1.016-0.505 2.016-0.796 3.011-0.094 0.321-0.162 0.57-0.215 0.77a23.17 23.17 0 0 0-0.398 0.779c-0.49 0.996-1.091 1.931-1.702 2.856 0.778-1.238-1.214 1.397-1.435 1.631-0.152 0.16-1.614 1.365-1.876 1.638a38.013 38.013 0 0 1-2.476 1.463l-0.319 0.154c-0.77 0.265-1.549 0.499-2.34 0.694a20.95 20.95 0 0 0-0.749 0.217 21.99 21.99 0 0 0-0.721 0.044c-0.456 0.033-0.916 0.033-1.375 0.033H684.492c-1.182 0-1.512-0.044-2.686-0.13 3.055 0.224-0.956-0.386-1.392-0.505-0.344-0.094-0.606-0.16-0.807-0.206-0.16-0.084-0.356-0.182-0.598-0.3-1.153-0.563-2.223-1.28-3.286-1.993 2.379 1.595-0.797-0.849-1.066-1.109-0.15-0.145-1.319-1.596-1.605-1.892a39.319 39.319 0 0 1-1.532-2.595l-0.27-0.562a31.507 31.507 0 0 1-0.722-2.284c-0.059-0.201-0.454-2.602-0.525-2.657a38.19 38.19 0 0 1-0.052-1.836v-0.155-1.119-5.01-137.685-191.095-62.59-13.783-1.145-0.233-0.029c0-0.767 0.034-1.532 0.089-2.297l0.164-0.872c0.265-1.326 0.701-2.611 1.135-3.889-0.901 2.649 0.652-1.141 0.812-1.433 0.094-0.172 1.307-1.896 1.416-2.149a39.938 39.938 0 0 1 2.016-2.078c0.181-0.175 0.331-0.322 0.454-0.446 0.182-0.11 0.415-0.256 0.751-0.482 0.912-0.611 1.891-1.107 2.874-1.591-1.571 0.816 1.664-0.443 2.006-0.537 0.586-0.112 0.961-0.19 1.143-0.236a27.472 27.472 0 0 1 1.674-0.057c17.485-0.426 35.033 0 52.521 0h145.943c0.844 0 3.114 0.257 3.127 0.2 0.783 0.184 1.552 0.424 2.317 0.669-1.667-0.512 1.453 0.686 1.82 0.886 0.197 0.108 1.747 1.226 2.062 1.396 0.711 0.647 1.391 1.33 2.052 2.026 0.152 0.16 0.276 0.287 0.389 0.403 0.11 0.192 0.283 0.469 0.552 0.873 0.635 0.956 1.154 1.98 1.662 3.007-0.796-1.526 0.563 1.858 0.638 2.115 0.178 0.663 0.327 1.332 0.461 2.004 0.016 0.235 0.043 0.581 0.085 1.065 0.07 1.077 0.031 2.178 0.031 3.254z" fill="#888888" p-id="18689"></path></svg>