<?xml version="1.0" standalone="no"?><!DOCTYPE svg PUBLIC "-//W3C//DTD SVG 1.1//EN" "http://www.w3.org/Graphics/SVG/1.1/DTD/svg11.dtd"><svg t="1584885342568" class="icon" viewBox="0 0 1024 1024" version="1.1" xmlns="http://www.w3.org/2000/svg" p-id="4700" xmlns:xlink="http://www.w3.org/1999/xlink" width="200" height="200"><defs><style type="text/css"></style></defs><path d="M512 1024C229.239467 1024 0 794.760533 0 512 0 229.239467 229.239467 0 512 0c282.760533 0 512 229.239467 512 512 0 282.760533-229.239467 512-512 512z m2.2528-713.3184c52.3264 89.429333 99.464533 180.189867 151.790933 269.585067 19.524267-6.9632 38.1952-15.7696 50.756267-37.4784-46.6944-90.350933-104.277333-184.4224-154.965333-274.7392-24.029867-27.374933-84.2752-40.3456-118.101334-16.9984 2.218667-1.7408 44.544 17.237333 51.712 52.599466-0.341333-0.7168 10.8544-3.754667 18.807467 7.031467zM337.783467 546.133333c46.148267-82.295467 93.969067-161.314133 140.0832-243.6096-12.629333-14.336-26.282667-27.204267-47.104-29.457066-48.981333 77.687467-96.5632 166.536533-144.008534 247.739733-17.237333 28.4672-20.650667 68.266667 4.096 93.5936-3.754667-5.870933 13.789867-33.314133 43.042134-42.222933-0.443733 0.580267-1.024-14.677333 3.8912-26.043734zM546.133333 595.080533V750.933333l101.376-64.4096-38.6048-1.979733 0.170667-37.102933h69.0176c54.0672-11.502933 78.848-45.6704 71.611733-101.307734-15.325867 20.821333-33.041067 30.037333-59.426133 27.648-0.955733 8.942933-10.410667 18.158933-22.2208 21.2992H546.133333z m-68.266666-14.472533h-115.882667c-36.283733-3.754667-53.0432 24.917333-54.784 37.614933 5.597867 21.845333 22.766933 30.890667 45.2608 31.061334h65.604267l0.136533 48.674133-36.693333 2.628267L477.866667 785.066667v-204.458667zM512 921.6c226.2016 0 409.6-183.3984 409.6-409.6S738.2016 102.4 512 102.4 102.4 285.7984 102.4 512s183.3984 409.6 409.6 409.6z m0-68.266667C323.4816 853.333333 170.666667 700.5184 170.666667 512S323.4816 170.666667 512 170.666667s341.333333 152.814933 341.333333 341.333333-152.814933 341.333333-341.333333 341.333333z" p-id="4701" fill="#888888"></path></svg>