<?xml version="1.0" standalone="no"?><!DOCTYPE svg PUBLIC "-//W3C//DTD SVG 1.1//EN" "http://www.w3.org/Graphics/SVG/1.1/DTD/svg11.dtd"><svg t="1584267593770" class="icon" viewBox="0 0 1024 1024" version="1.1" xmlns="http://www.w3.org/2000/svg" p-id="17188" xmlns:xlink="http://www.w3.org/1999/xlink" width="200" height="200"><defs><style type="text/css"></style></defs><path d="M760.610659 211.534787c-83.620846-87.494727-179.210771-173.639712-291.943824-85.330434-43.466712 34.065863-63.281801 82.541925-116.045631 113.178689-44.133935 25.610284-94.834694 17.693987-139.375922 34.282804-134.611213 50.118468-129.730865 125.642558-102.15675 255.744685 15.602989 73.535807 74.525327 324.196707 177.147701 333.101517 104.017197 9.007141 102.622374-180.176592 145.855762-234.07106 37.364487-46.543036 141.874938-104.738459 197.63206-117.827569 75.600866-17.736966 210.125094 68.726268 273.319911 10.604522C991.626382 441.683515 811.224434 264.456091 760.610659 211.534787zM348.699734 569.186444c-53.432076 30.841426-121.682232 12.536524-152.538225-40.86471-30.827339-53.429887-12.552388-121.677247 40.851034-152.531975 53.46073-30.826076 121.710886-12.551874 152.566879 40.878013C420.406761 470.070029 402.102133 538.360368 348.699734 569.186444zM547.841233 218.129996c4.649071-17.432021 22.576083-27.761274 40.008818-23.098068 17.404082 4.677533 27.747061 22.589484 23.069337 40.007179-4.676701 17.417695-22.576083 27.760251-39.979141 23.098068C553.506488 253.459642 543.163509 235.56304 547.841233 218.129996zM548.161541 343.075683c-17.432735-4.677533-27.747061-22.589484-23.069337-40.021505 4.648047-17.403369 22.576083-27.760251 39.979141-23.083741 17.432735 4.677533 27.747061 22.575158 23.097991 39.992853C583.491612 337.41066 565.594276 347.738889 548.161541 343.075683zM670.104727 341.927533c-4.677724 17.417695-22.576083 27.761274-40.008818 23.098068-17.404082-4.663206-27.747061-22.589484-23.069337-40.007179 4.648047-17.417695 22.576083-27.761274 40.008818-23.083741C664.439472 306.584584 674.753798 324.495512 670.104727 341.927533zM692.85478 257.004375c-4.649071 17.403369-22.577106 27.745924-39.980165 23.083741-17.432735-4.663206-27.776738-22.575158-23.069337-39.992853 4.620417-17.446347 22.576083-27.7756 39.979141-23.098068C687.188501 221.645053 697.532504 239.571331 692.85478 257.004375zM260.053226 415.665954c-31.379947 18.172895-42.100542 58.223053-24.028214 89.645716 18.187966 31.348985 58.225438 42.069141 89.663716 23.997554 31.321616-18.172895 42.071888-58.208726 23.99956-89.630367C331.527953 408.330896 291.460803 397.59539 260.053226 415.665954z" p-id="17189" fill="#888888"></path></svg>