<?xml version="1.0" standalone="no"?><!DOCTYPE svg PUBLIC "-//W3C//DTD SVG 1.1//EN" "http://www.w3.org/Graphics/SVG/1.1/DTD/svg11.dtd"><svg t="1584267748059" class="icon" viewBox="0 0 1024 1024" version="1.1" xmlns="http://www.w3.org/2000/svg" p-id="21073" xmlns:xlink="http://www.w3.org/1999/xlink" width="200" height="200"><defs><style type="text/css"></style></defs><path d="M883.2 195.584c-102.4-101.376-265.728-103.424-371.2-8.192C406.016 92.16 242.688 94.72 140.8 195.584 36.352 298.496 35.328 466.432 138.24 570.88l2.56 2.56 311.296 308.224c33.28 32.768 87.04 32.768 120.32 0l311.296-308.224c104.448-102.912 105.472-270.848 2.56-374.784l-3.072-3.072z m-39.936 337.92l-311.296 308.224c-11.264 11.264-29.184 11.264-39.936 0l-311.296-308.224C98.304 452.096 97.792 319.488 179.2 237.056l2.048-2.048c79.872-79.36 208.896-81.92 292.864-6.144l38.4 34.304 37.888-34.304C634.368 153.6 762.88 156.16 843.264 235.52c82.432 81.408 82.944 214.016 2.048 296.448-1.024 0.512-1.536 1.024-2.048 1.536z" p-id="21074" fill="#888888"></path><path d="M497.664 457.216V376.32c0-17.92 14.336-32.256 32.256-32.256s32.256 14.336 32.256 32.256v80.896h80.896c17.92 0 32.256 14.336 32.256 32.256s-14.336 32.256-32.256 32.256h-80.896v80.896c0 17.92-14.336 32.256-32.256 32.256s-32.256-14.336-32.256-32.256v-80.896H417.28c-17.92 0-32.256-14.336-32.256-32.256s14.336-32.256 32.256-32.256h80.384z" p-id="21075" fill="#888888"></path></svg>