<?xml version="1.0" standalone="no"?><!DOCTYPE svg PUBLIC "-//W3C//DTD SVG 1.1//EN" "http://www.w3.org/Graphics/SVG/1.1/DTD/svg11.dtd"><svg t="1584267890552" class="icon" viewBox="0 0 1024 1024" version="1.1" xmlns="http://www.w3.org/2000/svg" p-id="25531" xmlns:xlink="http://www.w3.org/1999/xlink" width="200" height="200"><defs><style type="text/css"></style></defs><path d="M638.87573335 860.94506667c-67.72053333 26.2144-140.9024 32.768-211.89973334 19.11466667-58.43626667-11.4688-114.14186667-36.59093333-161.65546666-73.18186667l-28.39893335 10.92266667c29.4912 24.576 62.2592 44.78293333 98.304 60.6208 27.8528 12.01493333 56.79786667 21.2992 86.28906667 27.30666666 21.84533333 4.36906667 44.2368 6.5536 66.62826667 7.64586667 54.61333333 1.6384 108.1344-7.64586667 160.01706667-27.8528 51.33653333-20.20693333 97.21173333-49.69813333 136.53333333-87.38133333 37.6832-37.13706667 67.72053333-80.2816 89.01973333-128.88746667 15.29173333-35.49866667 26.2144-73.18186667 31.1296-110.86506667l-28.39893333 10.92266667c-21.84533333 131.072-113.0496 243.02933333-237.56799999 291.6352zM978.57066667 463.36l-96.6656-247.3984c-4.9152-13.1072-16.384-22.39146667-30.03733333-25.12213333-7.64586667-1.6384-15.29173333-1.09226667-22.39146666 2.18453333L46.8672 497.7664c-20.75306667 8.192-31.1296 31.67573333-22.93759999 52.4288l96.66559999 247.3984c4.9152 13.1072 16.384 22.39146667 30.03733334 25.12213334 7.64586667 1.6384 15.29173333 1.09226667 22.39146666-2.18453334l782.60906667-304.7424c9.8304-3.82293333 18.0224-11.4688 22.39146668-21.84533333 3.82293333-9.28426667 4.36906667-20.20693333 0.54613332-30.58346667z m-32.768 28.39893334L163.1936 797.04746667c-2.73066667 1.09226667-5.46133333 1.09226667-8.192 0.54613333-4.9152-1.09226667-8.73813333-4.36906667-10.92266666-8.73813333l-96.11946666-247.94453333c-2.73066667-7.64586667 1.09226667-15.83786667 8.19199999-19.11466667l782.60906667-304.7424c2.73066667-1.09226667 5.46133333-1.09226667 8.192-0.54613333 4.9152 1.09226667 8.73813333 4.36906667 10.92266666 8.73813333l96.6656 247.3984c2.18453333 8.192-1.09226667 16.384-8.73813333 19.11466667zM256.03626667 330.6496l18.56853334 21.84533334 6.00746666-28.39893334 26.2144-10.92266666-25.12213333-14.19946667-2.18453333-28.94506667-21.29920001 19.6608L230.36800001 283.136l12.01493333 26.2144-14.7456 24.576 28.39893333-3.2768z m493.1584 352.256l-19.11466667-21.84533333-5.46133333 28.39893333-26.2144 11.4688 25.12213333 14.19946667 2.73066668 28.39893333 21.29919999-19.6608 27.85280001 6.5536-12.01493334-26.2144 14.7456-24.576-28.94506667 3.2768zM395.30026667 198.48533334L374.5472 179.37066667l-2.18453332 28.39893333-25.12213334 14.19946667 26.21440001 10.92266667 6.00746665 28.39893333 18.56853335-21.84533333 28.39893333 3.2768-14.7456-24.576 12.01493332-26.2144-28.39893333 6.5536z m210.26133333 619.3152l21.2992 19.6608 2.73066667-28.39893334 25.12213333-14.19946666-26.21439999-11.4688-5.46133333-28.39893334-19.11466667 21.84533334-28.39893334-3.2768 14.7456 24.576-12.01493333 26.2144 27.30666666-6.5536z m-40.95999999-630.784l-8.73813334-27.30666667-16.38399999 23.48373333h-28.94506667l17.47626666 22.9376-9.28426667 27.30666667 27.30666667-9.28426667 22.93760001 16.93013334-0.54613334-28.94506667 23.48373333-16.93013333-27.30666666-8.192zM436.26026667 828.17706667l8.73813333 27.30666667 16.38400001-23.48373334 28.94506667 0.54613334-16.93013334-22.9376 9.28426666-27.30666667-27.30666666 9.28426667-22.93759999-17.47626667v28.94506667l-23.48373335 16.384 27.30666668 8.73813333zM361.44 147.69493334c67.72053333-26.2144 140.9024-32.768 211.89973334-19.11466667 58.43626667 11.4688 114.14186667 36.59093333 161.65546666 73.18186667l28.39893334-10.92266667c-29.4912-24.576-62.2592-44.78293333-98.304-60.6208-27.8528-12.01493333-56.79786667-21.2992-86.28906667-27.30666667-21.84533333-4.36906667-44.2368-6.5536-66.62826667-7.64586666-54.61333333-1.6384-108.68053333 7.64586667-160.01706666 27.8528-51.33653333 20.20693333-97.21173333 49.69813333-136.53333333 87.38133333-37.6832 37.13706667-67.72053333 80.2816-89.01973333 128.88746667-15.29173333 35.49866667-26.2144 73.18186667-31.12960001 110.86506666l28.39893333-10.92266666c21.84533333-131.072 113.0496-243.02933333 237.568-291.6352z m57.344 147.456c34.95253333-13.65333333 73.18186667-18.56853333 110.31893334-13.1072l44.2368-17.47626667c-8.192-2.73066667-16.93013333-4.36906667-25.12213334-6.5536-46.42133333-8.73813333-93.93493333-4.36906667-138.71786666 12.56106667-53.52106667 21.2992-96.6656 57.89013333-125.06453333 106.496L328.67200001 359.59466667c24.02986667-28.39893333 55.15946667-50.7904 90.11199999-64.44373333z m162.74773334 418.33813333c-34.95253333 13.65333333-73.18186667 18.56853333-110.31893333 13.1072l-44.2368 17.47626667c8.192 2.73066667 16.93013333 4.36906667 25.12213334 6.5536 46.42133333 8.73813333 93.93493333 4.36906667 138.71786665-12.56106667 52.97493333-20.75306667 96.11946667-57.344 125.06453334-105.94986667l-44.2368 17.47626667c-24.02986667 27.8528-55.15946667 49.69813333-90.112 63.8976z" p-id="25532" fill="#888888"></path><path d="M511.62666667 570.40213334l-218.99946667 85.74293333-8.19199999-21.2992 43.69066667-16.93013333-41.50613334-105.40373334-36.59093333 14.19946667-8.19200001-21.2992 36.59093334-14.19946667-10.37653334-26.76053333 22.9376-8.73813333 10.37653334 26.76053333 85.74293333-33.31413333-10.37653333-26.76053334 23.48373333-9.28426666 10.37653333 26.76053333 37.6832-14.7456 8.19200001 21.2992-37.68320001 14.7456 40.96 105.40373333 43.69066667-16.93013333 8.192 20.75306667z m-118.51093332 65.536c-16.93013333 21.84533333-44.78293333 49.152-67.72053335 67.72053333-5.46133333-3.82293333-15.29173333-8.73813333-21.84533332-11.4688 23.48373333-17.47626667 51.33653333-44.78293333 63.8976-62.80533333l25.66826667 6.5536z m-84.10453334-132.7104l8.19199999 20.75306666 85.74293335-33.31413333-8.19200001-20.75306667-85.74293333 33.31413334z m24.576 62.80533333l85.74293333-33.31413333-8.73813334-22.39146667-85.74293333 33.31413333 8.73813334 22.39146667z m16.93013333 42.5984l85.74293334-33.31413333-9.28426667-23.48373334-85.74293334 33.31413334 9.28426667 23.48373333z m84.65066666-3.82293333c32.22186667-1.6384 68.8128 0 91.20426667 2.18453333l-15.29173332 23.48373333c-20.75306667-3.2768-54.61333333-6.00746667-86.83520001-4.9152l10.92266666-20.75306666zM545.48693335 364.50986667c0 19.6608-1.09226667 40.41386667-3.82293335 60.6208l65.536 168.20906667-22.39146665 8.73813333-51.88266668-132.7104c-3.2768 12.01493333-6.5536 22.9376-10.92266667 33.31413333-4.36906667-4.36906667-15.83786667-14.19946667-21.84533333-18.0224 14.19946667-32.22186667 22.39146667-77.0048 21.2992-118.51093333l24.02986668-1.6384z m188.96213332 151.82506667c14.7456-5.46133333 14.7456-13.65333333 5.46133333-42.5984 7.09973333 1.6384 18.0224 2.18453333 25.12213334 1.09226666 9.8304 36.59093333 7.64586667 50.7904-20.75306667 61.71306667l-60.07466667 23.48373333c-32.22186667 12.56106667-44.2368 8.192-56.25173332-21.84533333L599.00800001 463.36l-18.02240001 16.93013334L563.50933334 463.36l26.21440001-24.02986666-24.02986668-61.71306667 22.93760001-8.73813333 20.75306667 52.97493333 26.21439999-24.02986667-25.66826667-66.08213333 21.84533333-8.73813333 22.39146667 57.89013333 26.76053333-24.576 2.18453335-3.82293333 2.73066665-4.9152h18.56853334l0.54613333 3.82293333c16.93013333 44.2368 29.4912 77.55093333 31.67573334 88.4736 3.2768 12.01493333 0.54613333 19.6608-6.00746667 25.12213333-6.5536 5.46133333-17.47626667 9.8304-25.12213334 12.56106667-2.73066667-6.00746667-8.73813333-14.7456-13.65333332-19.11466667 6.5536-2.18453333 14.19946667-5.46133333 17.47626666-6.5536 3.82293333-1.6384 5.46133333-3.2768 4.9152-9.28426666-1.09226667-6.5536-8.73813333-27.8528-22.39146666-63.8976l-27.85280001 25.66826666 34.95253333 89.01973334-21.84533332 8.73813333-31.67573334-80.2816-26.21439999 24.02986667 32.76799999 83.5584c5.46133333 14.19946667 9.8304 16.384 26.76053333 9.8304l55.7056-22.9376z" p-id="25533" fill="#888888"></path></svg>