<?xml version="1.0" standalone="no"?><!DOCTYPE svg PUBLIC "-//W3C//DTD SVG 1.1//EN" "http://www.w3.org/Graphics/SVG/1.1/DTD/svg11.dtd"><svg t="1584885203542" class="icon" viewBox="0 0 1024 1024" version="1.1" xmlns="http://www.w3.org/2000/svg" p-id="1876" xmlns:xlink="http://www.w3.org/1999/xlink" width="200" height="200"><defs><style type="text/css"></style></defs><path d="M151.04 133.12C117.76 217.6 0 225.28 0 225.28v64s151.04 128 192 128 194.56-128 194.56-128l61.44 64s-40.96 35.84-81.92 64-110.08 64-110.08 64 43.52 143.36 15.36 230.4c-28.16 87.04-79.36 217.6-79.36 217.6s-17.92 64 64 64c33.28 0 64-64 64-64s25.6-69.12 66.56-128c38.4-58.88 64-64 64-64H640s38.4 28.16 64 64c23.04 35.84 56.32 94.72 64 128 7.68 33.28 28.16 64 64 64s64-28.16 64-64c0-12.8-81.92-320-64-384 23.04-79.36 38.4-97.28 64-128 25.6-30.72 128-89.6 128-128s-51.2-28.16-61.44-20.48c-12.8 7.68-43.52 30.72-66.56 46.08-23.04 15.36-151.04 97.28-192 102.4-40.96 7.68-64 7.68-128 0s-128-64-128-64L640 161.28l-64-64-189.44 192-66.56-256s-35.84 5.12-74.24 20.48c-38.4 12.8-79.36 38.4-94.72 79.36z" fill="" p-id="1877"></path></svg>