<?xml version="1.0" standalone="no"?><!DOCTYPE svg PUBLIC "-//W3C//DTD SVG 1.1//EN" "http://www.w3.org/Graphics/SVG/1.1/DTD/svg11.dtd"><svg t="1584885268913" class="icon" viewBox="0 0 1024 1024" version="1.1" xmlns="http://www.w3.org/2000/svg" p-id="3247" xmlns:xlink="http://www.w3.org/1999/xlink" width="200" height="200"><defs><style type="text/css"></style></defs><path d="M329.5 472C133 472 31.5 587.9 13.2 727.7c-18.6 139.7-69 255.5 316.3 255.5 385.6 0 334.9-115.8 316.3-255.4C627.6 587.9 526 472 329.5 472zM1013 695.7C996.5 573.4 906.3 472 731.7 472c-45.1-0.6-89.8 8-131.5 25 64.1 53.7 106.2 129.7 118.3 223.3l4.6 31.2c8.3 54.3 16.9 114.1-8.9 167.4 6 0.1 11.3 0.4 17.5 0.4 342.7 0.1 297.8-101.3 281.3-223.6zM315.3 425.4c68.9 0.4 132.9-35.3 168.6-94.2 34.8-58 34.8-130.4 0.1-188.5-35.7-58.8-99.6-94.7-168.5-94.3-107.4 0.1-194.6 84.4-194.7 188.5 0 104.1 87.1 188.5 194.5 188.5zM743.5 425.4c86 0 155.8-67.5 155.8-150.8-3.2-81-71.9-145.1-155.7-145.1s-152.5 64.1-155.7 145.1c0 40 16.4 78.3 45.6 106.6 29.1 28.3 68.7 44.2 110 44.2z" fill="#888888" p-id="3248"></path></svg>