<?xml version="1.0" standalone="no"?><!DOCTYPE svg PUBLIC "-//W3C//DTD SVG 1.1//EN" "http://www.w3.org/Graphics/SVG/1.1/DTD/svg11.dtd"><svg t="1584267718629" class="icon" viewBox="0 0 1024 1024" version="1.1" xmlns="http://www.w3.org/2000/svg" p-id="20257" xmlns:xlink="http://www.w3.org/1999/xlink" width="200" height="200"><defs><style type="text/css"></style></defs><path d="M403.456 819.733333a21.333333 21.333333 0 0 1 12.992 4.394667c19.093333 14.634667 55.637333 24.533333 96.384 24.533333 40.746667 0 77.312-9.898667 96.384-24.533333a21.333333 21.333333 0 0 1 12.992-4.394667H858.026667c20.864 0 37.973333-17.536 37.973333-39.445333V252.778667c0-21.973333-17.066667-39.445333-37.973333-39.445334H601.066667a95.594667 95.594667 0 0 0-72.853334 33.962667 21.333333 21.333333 0 0 1-32.426666 0A95.573333 95.573333 0 0 0 422.933333 213.333333H146.026667c-9.813333 0-18.026667 8.469333-18.026667 19.264v567.850667c0 10.88 8.149333 19.285333 18.026667 19.285333h257.429333z m-257.429333 42.666667C112.32 862.4 85.333333 834.624 85.333333 800.426667V232.597333C85.333333 198.528 112.32 170.666667 146.026667 170.666667h276.906666c33.130667 0 64.384 11.861333 89.066667 32.746666A137.536 137.536 0 0 1 601.066667 170.666667H858.026667C902.72 170.666667 938.666667 207.445333 938.666667 252.778667v527.509333c0 45.226667-35.989333 82.112-80.64 82.112H628.992c-27.797333 18.325333-70.314667 28.906667-116.16 28.906667-45.845333 0-88.362667-10.581333-116.138667-28.906667H146.026667z" fill="#888888" p-id="20258"></path><path d="M490.666667 213.333333h42.666666v320h-42.666666z" fill="#888888" p-id="20259"></path></svg>